<?xml version="1.0" encoding="UTF-8"?>
<!-- Generated by Pixelmator Pro 3.2.3 -->
<svg width="134" height="112" viewBox="0 0 134 112" xmlns="http://www.w3.org/2000/svg" xmlns:xlink="http://www.w3.org/1999/xlink">
    <path id="Path" fill="#dddddd" stroke="none" d="M 122.561005 22.065002 C 121.805389 21.395836 121.016388 20.765366 120.197006 20.176003 C 117.629181 18.299332 114.792038 16.822266 111.781998 15.794998 L 111.682007 15.761002 C 99.422607 11.599037 85.863182 15.22686 77.319962 24.954559 C 68.776741 34.682259 66.930008 48.596588 72.639999 60.216 L 70.790001 62.315998 L 44.941998 91.676994 C 41.850666 95.18174 41.028889 100.142654 42.825001 104.457001 C 43.538334 106.174072 44.637783 107.703651 46.037998 108.926994 C 48.47459 111.068634 51.662434 112.154099 54.899654 111.944412 C 58.136883 111.734726 61.158054 110.24707 63.298 107.808998 C 63.358997 107.741997 63.426998 107.668999 63.481998 107.597 L 63.481998 107.597 C 66.532898 110.105713 71.013771 109.787155 73.67907 106.872055 C 76.344368 103.956947 76.261284 99.465538 73.490005 96.651001 L 73.272003 96.488998 C 73.211006 96.444 73.155006 96.389 73.104004 96.348999 C 73.053001 96.308998 72.864006 96.119995 72.752007 96.002998 C 71.080254 94.207451 71.116844 91.414467 72.83506 89.663338 C 74.553276 87.912201 77.345055 87.822617 79.172005 89.459999 L 79.328003 89.604996 L 79.362 89.570999 C 82.454514 92.100739 86.994278 91.730186 89.63562 88.732437 C 92.276955 85.73468 92.072975 81.184387 89.174004 78.434998 L 91.007004 76.350998 C 105.466827 81.32869 121.42804 75.383865 129.108551 62.159885 C 136.789063 48.935909 134.043701 32.126251 122.555008 22.032997 Z M 115.582001 48.16 C 114.636414 49.247196 113.500076 50.152405 112.229004 50.831001 C 106.749969 53.777218 99.928223 52.055637 96.503311 46.862366 C 93.078415 41.669098 94.18235 34.720619 99.048141 30.844528 C 103.913925 26.968437 110.933334 27.445862 115.229492 31.945099 C 119.525635 36.444336 119.678558 43.478302 115.582001 48.16 Z"/>
    <path id="path1" fill="#e31337" stroke="none" d="M 48.473 62.278999 C 52.288265 61.020103 54.406933 56.95171 53.250999 53.104 L 55.876999 52.227001 C 59.408154 56.306282 63.91098 59.429234 68.969002 61.306999 C 58.838608 50.455051 57.494965 34.063393 65.722908 21.706589 C 73.950851 9.349785 89.592758 4.268181 103.512001 9.43 C 94.81868 0.142212 81.452019 -3.118973 69.458084 1.121559 C 57.464138 5.362083 49.117676 16.300072 48.194 28.987999 L 45.540001 29.864998 L 8.381 42.209 C 2.035371 44.382118 -1.375259 51.261364 0.736678 57.627617 C 2.848614 63.993874 9.694713 67.470558 16.081001 65.419998 L 16.349001 65.331001 L 16.349001 65.331001 C 17.722958 69.030289 21.750273 71.008896 25.518051 69.835716 C 29.28583 68.662544 31.478001 64.747375 30.509001 60.922001 C 30.470001 60.843998 30.436001 60.753998 30.403 60.670998 C 30.372355 60.606808 30.34791 60.539837 30.33 60.471001 C 30.274 60.308998 30.235001 60.146999 30.196001 59.989998 C 29.707251 57.615612 31.147942 55.270184 33.486778 54.632656 C 35.825611 53.995129 38.257233 55.285027 39.041 57.578999 C 39.053555 57.650059 39.074017 57.71949 39.102001 57.785999 L 39.146999 57.785999 C 40.527554 61.560661 44.660683 63.551888 48.473 62.278999 Z"/>
</svg>
