<svg xmlns="http://www.w3.org/2000/svg" width="256" height="256"><path fill="#1976D2" fill-opacity=".016" fill-rule="evenodd" d="M0 128.004v128.004l128.25-.254 128.25-.254.254-127.75L257.008 0H0v128.004m.485.496c0 70.4.119 99.053.265 63.672.146-35.38.146-92.98 0-128C.604 29.153.485 58.1.485 128.5"/><path fill="#1976D2" fill-opacity=".095" fill-rule="evenodd" d="M183.212 45.25c-1.074 1.788-5.214 8.825-9.201 15.638l-7.25 12.388 1.581 3.316c2.078 4.357 2.717 4.639-21.802-9.626-24.737-14.39-23.915-13.959-27.82-14.582-11.181-1.785-12.118-1.713-14.98 1.148-1.507 1.508-2.74 3.369-2.74 4.137 0 2.28-4.223 3.354-6.23 1.584-1.849-1.632-.343-2.416-43.77 22.801-6.325 3.673-19.15 11.086-28.5 16.473C1.526 110.613 0 111.917 0 117.764c0 3.502.582 4.971 2.874 7.264 1.581 1.581 3.121 3.516 3.422 4.301C6.939 131.003 21.422 140 23.476 140c.772 0-.998 2.272-3.933 5.048-7.359 6.96-9.989 13.127-10.003 23.452-.013 10.083 1.873 14.429 10.546 24.301 10.262 11.682 21.782 16.029 35.131 13.258 7.283-1.512 10.137-3.842 13.974-11.411 1.715-3.381 3.301-5.616 3.524-4.966.224.65-.369 2.675-1.318 4.5-.956 1.84-1.889 6.324-2.094 10.068-.368 6.725-.36 6.75 2.276 6.75 2.005 0 5.037-2.364 12.533-9.771 10.699-10.573 12.081-13.579 7.665-16.672-2.303-1.613-7.283-2.185-6.386-.733.281.454-2.821 4.133-6.891 8.176s-7.191 7.691-6.934 8.107c.257.415.049 1.013-.462 1.329-.511.315-.827-.121-.702-.969.124-.848 3.323-4.663 7.107-8.476 3.785-3.814 6.681-7.101 6.436-7.305-.245-.204-2.92-1.117-5.945-2.03-5.131-1.548-4.238-1.552 3.762-.016 2.977.571 3.239.421 3-1.716-.17-1.522.322-2.464 1.404-2.69.917-.192 12.167 5.762 25 13.23 12.834 7.468 24.981 14.078 26.993 14.688 5.077 1.54 8.674.362 12.915-4.232 3.117-3.377 4.051-3.845 6.638-3.328 3.675.735 3.016 1.065 35.788-17.885 62.025-35.866 58.679-33.688 60.57-39.419 1.636-4.959.409-9.66-3.393-12.998-1.793-1.575-7.854-5.521-13.469-8.768-5.614-3.248-10.208-6.265-10.208-6.705 0-.44.938-1.366 2.083-2.059 1.146-.692 5.137-6.433 8.868-12.758 9.124-15.468 10.353-18.005 10.263-21.183-.1-3.529-15.682-30.422-18.816-32.476-1.321-.865-3.301-1.338-4.4-1.051-1.099.288-1.998.115-1.998-.384 0-.498-2.748-.906-6.107-.906-5.251 0-6.019.23-5.477 1.641.52 1.357.372 1.428-.856.408-.818-.678-5.155-1.485-9.639-1.792l-8.153-.559 1.238 2.401c1.003 1.944.996 2.172-.037 1.198-.878-.829-1.843-.899-3.099-.227-1.411.755-2.111.518-3.088-1.047-1.703-2.728-2.29-2.57-4.57 1.227m44.042 27.26c.414.457.04 1.918-.83 3.247-.871 1.329-1.356 2.644-1.078 2.923.279.278 1.213-.86 2.077-2.53 1.224-2.368 1.295-3.194.323-3.754-.685-.394-.907-.343-.492.114m-13.492 4.197c1.244.239 3.044.23 4-.02s-.062-.446-2.262-.435c-2.2.011-2.982.216-1.738.455M99 86.526c-.275.565-12.425 7.92-27 16.345-14.575 8.425-27.328 16.116-28.34 17.092-1.782 1.716-1.75 1.836 1 3.754 1.562 1.091 19.04 11.338 38.84 22.772 19.8 11.434 37.201 21.632 38.669 22.661l2.67 1.871.695-6.493c.932-8.704.027-13.487-2.431-12.845-2.899.758-11.872-4.357-17.484-9.967l-5.119-5.118-.5-25.549c-.275-14.052-.725-25.087-1-24.523m30.629 1.998c-.346.902-.629 4.962-.629 9.023 0 8.133.943 9.453 6.753 9.453 3.65 0 15.346 6.971 16.982 10.122.884 1.701 1.24 9.564 1.25 27.628.008 13.887.17 25.25.359 25.25.189 0 7.052-3.886 15.25-8.636 46.738-27.078 46.627-27.01 44.348-27.066-.793-.019-19.367-10.472-41.275-23.229-21.908-12.758-40.412-23.418-41.121-23.69-.708-.271-1.571.244-1.917 1.145m-89.31 67.235c-1.649.274-2.163 1.032-2.104 3.106.16 5.613-3.198 16.776-5.497 18.276-1.308.853 3.897 4.215 5.241 3.385.728-.451.728-1.241.001-2.601-1.408-2.631-.167-8.925 1.76-8.925 1.117 0 1.329-.667.837-2.628-.949-3.78.294-8.643 2.038-7.974.797.306 1.405-.071 1.405-.87 0-1.781-.927-2.226-3.681-1.769M47 158c0 .55.418 1 .929 1 1.731 0 4.071 3.132 4.071 5.449 0 1.28-1.001 2.976-2.25 3.81-2.155 1.44-2.176 1.585-.5 3.451 2.524 2.809 2.156 5.82-1 8.175l-2.75 2.052 2.595.031c4.792.059 7.614-5.24 5.281-9.916-1.369-2.744-1.364-3.207.051-4.622 2.464-2.464 1.867-4.968-1.86-7.811C47.829 156.768 47 156.474 47 158m22.75 15.96c-5.362 5.996-9.75 11.158-9.75 11.471 0 .313.75.569 1.667.569.916 0 1.404-.263 1.083-.583-.321-.321.167-1.35 1.083-2.286.917-.936 3.873-4.161 6.569-7.166 2.696-3.006 4.347-4.414 3.669-3.129-.678 1.284-1.061 2.507-.851 2.718.21.21 1.818-2.529 3.572-6.086 1.754-3.557 3.081-6.455 2.949-6.439-.133.015-4.629 4.934-9.991 10.931M40.5 181c.34.55 1.604.993 2.809.985 1.781-.013 1.91-.197.691-.985-1.97-1.273-4.287-1.273-3.5 0m24.313 5.683c.721.289 1.584.253 1.916-.079.332-.332-.258-.568-1.312-.525-1.165.048-1.402.285-.604.604m4 1c.721.289 1.584.253 1.916-.079.332-.332-.258-.568-1.312-.525-1.165.048-1.402.285-.604.604"/><path fill="#1976D2" fill-opacity=".313" fill-rule="evenodd" d="m176.125 57.837-9.109 15.837 3.181 5.873 3.181 5.874-3.939-2.343c-15.537-9.238-49.66-28.708-52.939-30.206-2.2-1.006-5.212-1.838-6.694-1.85-3.653-.03-7.812 3.771-8.659 7.913-.539 2.635-1.228 3.442-3.056 3.577-1.582.116-2.527-.464-2.866-1.759-.348-1.33-1.164-1.807-2.615-1.529-1.161.222-14.71 7.727-30.11 16.679-15.4 8.951-35.125 20.398-43.834 25.436C1.491 111.276-.698 113.467.449 119.58c.759 4.048 4.46 7.263 16.702 14.509l8.943 5.294-4.627 3.954c-12.276 10.494-15.43 25.413-8.361 39.558 3.505 7.015 7.971 11.298 17.108 16.408 8.649 4.837 15.707 6.307 22.903 4.77 9.096-1.942 13.191-4.47 15.74-9.717 2.598-5.346 2.415-5.611-5.109-7.416l-4.769-1.144 4.941-5.648c2.718-3.107 7.654-8.573 10.971-12.148l6.029-6.5-3.96 8.209c-2.178 4.515-3.96 8.656-3.96 9.203 0 1.184 7.382 3.397 7.766 2.328 1.161-3.234 3.071-5.778 4.553-6.063 1.796-.346 3.453.541 35.003 18.742 18.807 10.85 22.194 11.939 27.112 8.716 1.313-.86 2.914-3.159 3.557-5.107 1.471-4.458 4.582-6.45 5.509-3.527.43 1.355 1.513 1.999 3.362 1.999 3.455 0 87.864-48.758 90.488-52.269 3.914-5.237 1.6-13.122-4.882-16.638C234.319 121.047 219 111.641 219 110.841c0-.527-.414-.703-.919-.391-1.006.622-4.081-2.031-4.081-3.521 0-.511 1.125-.929 2.5-.929 1.503 0 2.5.571 2.5 1.433 0 3.185 6.577 3.021 10.307-.258C232.083 104.735 246 79.701 246 77.148c0-3.732-15.892-30.155-18.906-31.434-1.427-.605-3.332-1.714-4.235-2.463-1.044-.868-3.502-1.252-6.766-1.057l-5.125.306 9.051 15.714 9.051 15.715-2.594 4.109c-2.087 3.306-2.867 3.882-3.991 2.949-.769-.637-1.915-.839-2.548-.448-.797.493-.944.058-.477-1.414.628-1.978.32-2.125-4.452-2.125-2.819 0-4.892-.379-4.606-.841.459-.743-13.298-25.408-15.316-27.46-.433-.44-1.834-.88-3.113-.976-1.379-.104-2.966-1.302-3.899-2.943-.866-1.522-1.859-2.77-2.207-2.774-.348-.003-4.732 7.121-9.742 15.831m18.052-14.534c.178.717 3.698 7.241 7.823 14.497 6.132 10.786 7.911 13.194 9.75 13.197 1.238.001 2.25.398 2.25.882 0 .483 1.37 1.446 3.045 2.14 3.995 1.654 7.969.026 7.924-3.248-.017-1.249-2.835-6.996-6.262-12.771-4.979-8.391-6.982-10.868-9.969-12.332-2.056-1.008-3.738-2.246-3.738-2.75 0-.505-2.508-.918-5.573-.918-4.079 0-5.487.349-5.25 1.303M93.974 87.446C90.963 89.254 78.15 96.713 65.5 104.02c-12.65 7.308-23.788 13.963-24.75 14.789-2.517 2.159-2.148 4.456 1.006 6.264 1.509.866 20.294 11.752 41.744 24.192 21.45 12.441 39.787 22.918 40.75 23.284 1.607.61 1.75-.322 1.75-11.375v-12.04l-2.83.08c-2.775.079-12.414-4.944-18.92-9.86l-3.25-2.456v-25.89c0-14.239-.349-26.106-.776-26.37-.427-.263-3.239 1-6.25 2.808M128.2 85.2c-.758.758-1.2 4.562-1.2 10.329v9.129l5.25 2.378c9.877 4.473 17.578 9.29 18.664 11.675.689 1.511 1.086 11.513 1.086 27.336 0 13.724.356 24.953.791 24.953 1.139 0 59.368-33.86 61.46-35.739 1.667-1.497 1.667-1.629 0-2.776-3.685-2.536-83.387-48.485-84.1-48.485-.413 0-1.291.54-1.951 1.2m-89.323 64.723c-.955 2.739-1.211 2.857-4.055 1.865-2.377-.829-3.227-.758-3.914.327-1.415 2.233-1.048 3.706 1.092 4.385 1.1.349 2.032 1.392 2.07 2.317.057 1.353.232 1.291.893-.317.79-1.922.852-1.927 1.584-.128.43 1.058.005 5.08-.977 9.243-1.589 6.74-2.032 7.511-5.189 9.009-3.657 1.735-4.99 1.406-4.066-1.003.35-.911 1.343-1.262 2.624-.927 1.133.297 2.061.112 2.061-.41s-.795-.891-1.768-.82c-5.061.373-5.958 4.998-1.173 6.049 2.742.602 2.995.965 2.44 3.493-.505 2.298-.224 2.947 1.516 3.499 2.491.79 2.386.873 3.822-3.005l1.111-3-.224 3.5c-.188 2.935.134 3.551 1.991 3.815 1.671.238 2.372-.315 2.858-2.25.567-2.258 1.161-2.565 4.963-2.565 3.475 0 4.724-.515 6.391-2.635 2.252-2.862 2.754-8.284.937-10.101-.847-.847-.72-1.55.5-2.771 2.358-2.358 2.036-6.768-.678-9.319-1.273-1.196-2.82-2.174-3.438-2.174-.729 0-.918-1.256-.54-3.589.543-3.342.418-3.565-1.813-3.25-1.59.225-2.502 1.095-2.715 2.589-.175 1.238-.746 2.25-1.269 2.25-.523 0-.656-1.169-.295-2.607.433-1.726.186-2.904-.731-3.485-2.242-1.42-2.931-1.074-4.008 2.015m.626 1.063c-.574 2.612-1.015 2.986-2.841 2.404-3.598-1.148-5.162-.967-5.162.596 0 .818.788 1.638 1.75 1.824.962.185 1.75-.084 1.75-.598s1.04-.736 2.311-.493c2.48.474 4.289-1.062 4.844-4.115.591-3.251-1.934-2.887-2.652.382M45.787 153c-.5 3.401.632 3.955 2.178 1.066 1.419-2.653 1.297-4.066-.352-4.066-.776 0-1.58 1.321-1.826 3m-4.318 7.5a741 741 0 0 0-.898 2.897c-.631 2.052 4.554 2.832 6.429.966 1.333-1.326 1.237-1.708-.861-3.428-2.836-2.325-4.045-2.438-4.67-.435m-8.844 3.625c-.834 4.168-.026 4.976.875.875.38-1.729.482-3.351.227-3.606-.255-.255-.751.974-1.102 2.731M49 162.989c0 1.421-1.058 2.568-3.25 3.52l-3.25 1.413 3.05.039c1.677.021 3.59-.501 4.25-1.161 1.458-1.458 1.571-4.453.2-5.3-.55-.34-1 .33-1 1.489m-17.921 7.594c.048 1.165.285 1.402.604.605.289-.722.253-1.585-.079-1.917-.332-.332-.568.258-.525 1.312m7.346 1.86c-.862 3.436.162 4.557 4.165 4.557 4.46 0 5.681-2.553 2.466-5.156-3.203-2.593-5.891-2.35-6.631.599m9.643 1.185c-.086 2.688-1.754 4.076-5.568 4.634-2.481.363-2.287.464 1.128.588 5.061.184 7.197-1.777 5.582-5.124-1.068-2.212-1.075-2.213-1.142-.098m-15.918 8.229c-.953 1.683-1.027 2.666-.259 3.434 1.535 1.535 2.313.346 1.927-2.95l-.332-2.841-1.336 2.357m6.517.81C37.629 183.704 37.883 187 39 187c.55 0 1-1.125 1-2.5 0-2.618-.231-2.936-1.333-1.833m41.796 7.651c-5.177 5.344-9.392 14.153-7.62 15.925C74.687 208.087 91 192.773 91 189.197c0-2.185-1.866-4.197-3.893-4.197-.822 0-3.811 2.393-6.644 5.318"/><path fill="#1976D2" fill-opacity=".571" fill-rule="evenodd" d="M176.364 57.774 167.228 73.5l3.472 6.25c1.91 3.438 3.207 6.25 2.883 6.25-.324 0-13.021-7.259-28.215-16.131-15.194-8.872-29.35-16.809-31.459-17.637-7.423-2.916-12.878 1.918-12.941 11.468-.029 4.444-.141 4.655-1.504 2.854-2.21-2.923-3.757-.649-4.257 6.256l-.422 5.84-7.643 4.516c-4.203 2.483-18.78 10.995-32.392 18.914C41.137 109.999 30 117.055 30 117.761c0 .705 1.096 1.781 2.435 2.391 2.106.96 2.749.761 4.75-1.469 1.273-1.418 14.915-9.833 30.315-18.7 15.844-9.122 29.187-17.478 30.735-19.246l2.735-3.125.265 29.86.265 29.861 6.5 3.997c6.317 3.884 12.876 5.998 14.809 4.773.553-.35 1.124-13.487 1.364-31.346.297-22.045.752-31.082 1.61-31.94 1.622-1.622 1.744-1.559 42.752 22.221 45.939 26.64 46.965 27.272 46.965 28.942 0 .823-12.959 8.96-30.5 19.151-16.775 9.746-31.512 18.45-32.75 19.341-2.043 1.472-2.25 2.439-2.25 10.516 0 5.188.442 9.167 1.06 9.549.584.361 2.466.073 4.184-.638 2.395-.992 3.217-1.015 3.523-.097.22.659 1.193 1.198 2.163 1.198 2.577 0 84.164-47.486 86.82-50.531 5.933-6.804 1.219-12.523-21-25.472-9.113-5.311-15.75-9.804-15.75-10.661 0-1.165 1.228-1.429 5.75-1.236 3.162.135 6.031.666 6.375 1.18.344.514 1.561.637 2.704.274C228.45 105.722 243 80.929 243 77.294c0-2.873-13.613-27.208-15.66-27.994-.715-.274-2.245-2.029-3.401-3.899-1.93-3.122-2.506-3.401-7.021-3.401-2.705 0-4.918.349-4.918.775 0 .426 3.88 7.507 8.623 15.735l8.624 14.961-2.153 4.015c-2.655 4.952-6.241 9.543-5.869 7.514.179-.975-.489-1.475-1.909-1.428-2.08.069-2.114-.062-.715-2.768 1.815-3.509.684-4.187-6.087-3.649-2.483.198-4.514-.059-4.514-.569 0-1.719-13.234-23.739-14.577-24.254-.731-.28-2.747-2.72-4.48-5.421-1.733-2.701-3.217-4.9-3.297-4.887-.08.013-4.257 7.1-9.282 15.75M194 42.521c0 .287 3.456 6.561 7.68 13.943 7.587 13.257 7.731 13.429 11.75 14.052 2.239.346 4.86.853 5.825 1.126.971.274 1.997-.134 2.296-.914.709-1.849-8.325-17.434-13.776-23.763-4.009-4.655-4.571-4.964-9.025-4.965-2.613 0-4.75.235-4.75.521M126.411 128c0 9.625.15 13.563.334 8.75.183-4.812.183-12.688 0-17.5-.184-4.812-.334-.875-.334 8.75m18.373 28.083-.284 39.083-3.286 2.935c-2.59 2.314-2.96 3.059-1.747 3.525 2.588.993 6.418-.521 8.202-3.243 1.513-2.309 1.701-6.616 1.762-40.33.056-30.599-.191-38.058-1.303-39.399-.755-.91-1.753-1.654-2.217-1.654-.464 0-.971 17.587-1.127 39.083M34.5 136.869c-4.04 1.06-10.174 4.033-11.422 5.537-.557.671 1.743-.145 5.111-1.815 18.151-8.996 40.58 2.536 43.734 22.485l.766 4.848-7.836 8.788c-4.311 4.833-7.841 9.113-7.845 9.509-.004.397 1.454 1.101 3.242 1.564 1.788.463 3.222 1.262 3.188 1.775-.116 1.741-8.502 7.38-12.73 8.559-10.076 2.81-20.264.85-29.441-5.666l-3.767-2.674 3 2.702c9.355 8.429 29.738 11.998 39.696 6.952 1.817-.921 4.091-2.365 5.054-3.209 1.864-1.634 2.401-5.224.781-5.224-.532 0-.736-.606-.452-1.346.331-.862-.821-1.855-3.202-2.761l-3.719-1.416 10.128-11.287c9.485-10.572 10.062-11.459 9.105-13.978C74.768 152 68.818 146.169 58 140.722c-7.926-3.99-17.186-5.509-23.5-3.853m-16.095 9.381L16.5 148.5l2.25-1.905c2.114-1.79 2.705-2.595 1.905-2.595-.19 0-1.202 1.012-2.25 2.25m-3.127 4c-1.499 1.938-2.442 3.75-1.952 3.75.244 0 1.181-1.125 2.082-2.5 1.686-2.573 1.592-3.476-.13-1.25M40 151c0 1.1.173 2 .383 2 .211 0 .619-.9.907-2 .287-1.1.115-2-.384-2-.498 0-.906.9-.906 2m-8 3.059c0 .582.45.781 1 .441s1-.816 1-1.059-.45-.441-1-.441-1 .477-1 1.059M33.5 166c-.956 3.902-1.514 7.32-1.239 7.595.275.275 1.283-2.693 2.239-6.595.956-3.902 1.514-7.32 1.239-7.595-.275-.275-1.283 2.693-2.239 6.595m-23.421-3.417c.048 1.165.285 1.402.604.605.289-.722.253-1.585-.079-1.917-.332-.332-.568.258-.525 1.312m67.99 5.734c-.589 1.55-1.581 3.8-2.206 5-1.102 2.121-1.062 2.116 1.416-.161 1.829-1.681 3.212-2.162 4.886-1.699 2.022.56 2.125.472.762-.655-.865-.716-2.07-2.202-2.679-3.302-1.056-1.908-1.157-1.87-2.179.817M10.158 174c0 1.375.227 1.938.504 1.25.278-.687.278-1.812 0-2.5-.277-.687-.504-.125-.504 1.25m16.301 2.067c-1.076 1.741.149 2.11 1.521.457.789-.95.865-1.524.201-1.524-.584 0-1.36.48-1.722 1.067m50.084 2.864c-.317.512-.118 1.213.441 1.559.559.345 1.016-.074 1.016-.931 0-1.757-.6-2.015-1.457-.628M12 180.642c0 .537.7 1.849 1.555 2.917 1.467 1.83 1.487 1.798.365-.559-1.458-3.061-1.92-3.628-1.92-2.358m20.079 2.941c.048 1.165.285 1.402.604.605.289-.722.253-1.585-.079-1.917-.332-.332-.568.258-.525 1.312M15 186.378c0 .207.787.995 1.75 1.75 1.586 1.243 1.621 1.208.378-.378-1.307-1.666-2.128-2.195-2.128-1.372m66.118 4c-2.456 2.534-3.192 4.096-2.946 6.25l.328 2.872 4.75-4.377c2.612-2.408 4.75-4.947 4.75-5.643 0-.995-2.028-2.48-3.386-2.48-.122 0-1.695 1.52-3.496 3.378"/></svg>