<svg xmlns="http://www.w3.org/2000/svg" width="256" height="256"><path fill="#1976D2" fill-opacity=".016" fill-rule="evenodd" d="M0 128.004v128.004l128.25-.254 128.25-.254.254-127.75L257.008 0H0zm.485.496c0 70.4.119 99.053.265 63.672s.146-92.98 0-128S.485 58.1.485 128.5"/><path fill="#1976D2" fill-opacity=".095" fill-rule="evenodd" d="M183.212 45.25c-1.074 1.788-5.214 8.825-9.201 15.638l-7.25 12.388 1.581 3.316c1.475 3.091 1.466 3.272-.13 2.671-.942-.355-10.712-5.892-21.712-12.305-24.578-14.328-23.854-13.948-27.78-14.574-11.181-1.785-12.118-1.713-14.98 1.148-1.507 1.508-2.74 3.369-2.74 4.137 0 2.28-4.223 3.354-6.23 1.584-1.849-1.632-.343-2.416-43.77 22.801-6.325 3.673-19.15 11.086-28.5 16.473C1.526 110.613 0 111.917 0 117.764c0 3.502.582 4.971 2.874 7.264 1.581 1.581 3.121 3.516 3.422 4.301C6.939 131.003 21.422 140 23.476 140c.772 0-.998 2.272-3.933 5.048-7.359 6.96-9.989 13.127-10.003 23.452-.013 10.083 1.873 14.429 10.546 24.301 10.317 11.745 21.639 16.016 34.959 13.189 7.69-1.631 10.273-3.702 14.146-11.342 1.715-3.381 3.301-5.616 3.524-4.966.224.65-.336 2.618-1.243 4.372s-1.865 6.285-2.129 10.068l-.48 6.878h2.68c2.05 0 5.007-2.299 12.569-9.771 10.699-10.573 12.081-13.579 7.665-16.672-2.303-1.613-7.283-2.185-6.386-.733.281.454-2.821 4.133-6.891 8.176s-7.191 7.691-6.934 8.107.049 1.013-.462 1.329c-.511.315-.827-.121-.702-.969.124-.848 3.323-4.663 7.107-8.476s6.681-7.096 6.436-7.293-2.02-.85-3.945-1.452l-3.5-1.092 4.261.552c4.008.52 4.246.414 4-1.785-.169-1.519.323-2.461 1.405-2.687.917-.192 12.167 5.762 25 13.23s24.981 14.078 26.993 14.688c5.077 1.54 8.674.362 12.915-4.232 3.117-3.377 4.051-3.845 6.638-3.328 3.722.745 2.396 1.422 41.288-21.086 56.719-32.824 54.647-31.369 55.659-39.093.799-6.092-2.39-9.831-14.675-17.21-5.766-3.464-11.159-6.728-11.984-7.254-1.262-.804-1.076-1.312 1.169-3.202 1.467-1.236 5.451-6.972 8.853-12.747 8.613-14.621 10.28-18.089 10.191-21.196-.1-3.519-15.688-30.414-18.815-32.463-1.321-.865-3.301-1.338-4.4-1.051s-1.998.115-1.998-.384c0-.498-2.748-.906-6.107-.906-5.251 0-6.019.23-5.477 1.641.52 1.357.372 1.428-.856.408-.818-.678-5.155-1.485-9.639-1.792l-8.153-.559 1.238 2.401c1.003 1.944.996 2.172-.037 1.198-.878-.829-1.843-.899-3.099-.227-1.411.755-2.111.518-3.088-1.047-1.703-2.728-2.29-2.57-4.57 1.227m44.17 27.559c.38.615-.209 2.018-1.309 3.118s-1.586 2.256-1.079 2.569c.506.313 1.613-.77 2.46-2.407 1.127-2.178 1.23-3.166.388-3.687-.698-.431-.879-.271-.46.407m-13.132 3.88c.963.252 2.537.252 3.5 0 .963-.251.175-.457-1.75-.457s-2.713.206-1.75.457M98.5 87.215c-.55.506-12.7 7.683-27 15.949s-26.828 15.825-27.84 16.8c-1.781 1.715-1.75 1.835 1 3.753 1.562 1.091 19.04 11.338 38.84 22.772s37.201 21.632 38.669 22.661l2.67 1.871.695-6.493c.932-8.704.027-13.487-2.431-12.845-2.899.758-11.872-4.357-17.484-9.967l-5.119-5.118-.5-25.152c-.332-16.691-.836-24.843-1.5-24.231m31.047 2.035c-.271 1.237-.617 5.281-.77 8.985-.272 6.616-.225 6.756 2.668 7.952 1.619.669 3.917 1.136 5.107 1.038 2.916-.241 14.642 6.929 16.183 9.897.884 1.701 1.24 9.564 1.25 27.628.008 13.887.17 25.25.359 25.25s7.052-3.886 15.25-8.636c46.678-27.044 46.635-27.017 44.348-27.054-.793-.012-13.367-6.991-27.942-15.507C146.19 95.541 131.325 87 130.649 87c-.336 0-.832 1.013-1.102 2.25M40.35 155.755c-1.68.28-2.15 1.061-2.15 3.573 0 6.044-3.648 17.672-5.544 17.672-.605 0-.138.963 1.039 2.139 2.752 2.752 5.937 1.911 4.305-1.138-1.443-2.696-.238-9.001 1.72-9.001 1.117 0 1.329-.667.837-2.628-.949-3.78.294-8.643 2.038-7.974.797.306 1.405-.071 1.405-.87 0-1.776-.927-2.226-3.65-1.773m7.15 2.743c3.895 2.793 4.5 3.608 4.5 6.063 0 1.681-.812 2.852-2.516 3.628l-2.517 1.147 2.099 2.234c2.611 2.779 2.218 6.586-.816 7.917-2.922 1.282-2.876 2.513.095 2.513 4.573 0 7.302-5.395 5.031-9.948-1.369-2.744-1.364-3.207.051-4.622.865-.865 1.573-2.387 1.573-3.383 0-1.933-5.989-7.068-8.183-7.015-.789.019-.516.606.683 1.466m22.25 15.462c-5.362 5.996-9.75 11.158-9.75 11.471 0 1.511 2.706.299 4.018-1.8 2.225-3.557 11.476-13.491 10.053-10.795-.678 1.284-1.061 2.507-.851 2.718s1.818-2.529 3.572-6.086 3.081-6.455 2.949-6.439c-.133.015-4.629 4.934-9.991 10.931M40.5 181c.34.55 1.518 1 2.618 1s1.722-.45 1.382-1-1.518-1-2.618-1-1.722.45-1.382 1m33.313.683c.721.289 1.584.253 1.916-.079s-.258-.568-1.312-.525c-1.165.048-1.402.285-.604.604m-9 5c.721.289 1.584.253 1.916-.079s-.258-.568-1.312-.525c-1.165.048-1.402.285-.604.604"/><path fill="#1976D2" fill-opacity=".309" fill-rule="evenodd" d="m176.125 57.837-9.109 15.837 3.153 5.821c1.734 3.202 2.743 5.583 2.242 5.292-55.706-32.426-58.121-33.728-62.605-33.765-3.653-.03-7.812 3.771-8.659 7.913-.539 2.635-1.228 3.442-3.056 3.577-1.546.114-2.527-.462-2.842-1.669-.265-1.014-1.217-1.838-2.116-1.832-.898.006-11.308 5.651-23.133 12.544a16052 16052 0 0 1-44.351 25.734C1.036 111.508-.766 113.102.449 119.58c.759 4.048 4.46 7.263 16.702 14.509l8.943 5.294-4.627 3.954c-12.276 10.494-15.43 25.413-8.361 39.558 3.505 7.015 7.971 11.298 17.108 16.408 8.649 4.837 15.707 6.307 22.903 4.77 9.096-1.942 13.191-4.47 15.74-9.717 2.598-5.346 2.415-5.611-5.109-7.416l-4.769-1.144 4.941-5.648c2.718-3.107 7.654-8.573 10.971-12.148l6.029-6.5-3.96 8.209c-2.178 4.515-3.96 8.656-3.96 9.203 0 1.184 7.382 3.397 7.766 2.328 1.4-3.901 3.102-5.738 5.297-5.719 1.359.012 13.606 6.47 27.215 14.35 26.108 15.119 28.945 16.179 34.156 12.764 1.313-.86 2.914-3.159 3.557-5.107 1.471-4.458 4.582-6.45 5.509-3.527.43 1.355 1.513 1.999 3.362 1.999 3.455 0 87.864-48.758 90.488-52.269 2.389-3.197 2.381-9.275-.015-12.485-1.026-1.374-7.815-5.929-15.087-10.122s-14.127-8.407-15.235-9.364-2.013-1.45-2.013-1.095-.9-.17-2-1.165c-2.675-2.42-2.52-3.5.5-3.5 1.503 0 2.5.571 2.5 1.433 0 3.185 6.577 3.021 10.307-.258C232.083 104.735 246 79.701 246 77.148c0-1.242-3.667-8.57-8.149-16.284-5.938-10.22-8.855-14.295-10.749-15.015-1.429-.544-3.337-1.657-4.241-2.475-1.118-1.012-3.278-1.388-6.768-1.18l-5.125.306 9.051 15.714 9.051 15.715-2.594 4.109c-2.087 3.306-2.867 3.882-3.991 2.949-.769-.637-1.915-.839-2.548-.448-.797.493-.944.058-.477-1.414.628-1.978.32-2.125-4.452-2.125-2.819 0-4.891-.38-4.604-.844.451-.731-13.261-25.269-15.344-27.457-.419-.44-1.808-.88-3.087-.976-1.379-.104-2.966-1.302-3.899-2.943-.866-1.522-1.859-2.77-2.207-2.774-.348-.003-4.732 7.121-9.742 15.831m18.052-14.534c.178.717 3.698 7.241 7.823 14.497 5.31 9.34 8.032 13.194 9.321 13.197 1.002.001 2.496.677 3.32 1.501 2.069 2.069 6.345 2.999 8.264 1.797 3.04-1.904 2.229-5.121-3.974-15.753-5.883-10.085-9.278-14.064-11.061-12.961-.443.273-1.378-.421-2.078-1.542-1.023-1.638-2.322-2.039-6.606-2.039-3.881 0-5.245.355-5.009 1.303M93.974 87.446C90.963 89.254 78.15 96.713 65.5 104.02s-23.788 13.963-24.75 14.789c-3.315 2.844-1.937 4.568 8.513 10.643C97.224 157.336 124.54 173 125.207 173c.436 0 .793-5.37.793-11.933v-11.933l-2.83.08c-2.775.079-12.414-4.944-18.92-9.86l-3.25-2.456v-25.89c0-14.239-.349-26.106-.776-26.37s-3.239 1-6.25 2.808M128.2 85.2c-.758.758-1.2 4.562-1.2 10.329v9.129l5.25 2.378c9.877 4.473 17.578 9.29 18.664 11.675.689 1.511 1.086 11.513 1.086 27.336 0 13.724.356 24.953.791 24.953 1.294 0 59.555-33.982 61.466-35.851 1.67-1.634 1.497-1.87-3.5-4.764-2.891-1.675-22.041-12.797-42.554-24.715C147.689 93.751 130.567 84 130.153 84s-1.293.54-1.953 1.2m-89.323 64.723c-.955 2.739-1.211 2.857-4.055 1.865-2.377-.829-3.227-.758-3.914.327-1.415 2.233-1.048 3.706 1.092 4.385 1.1.349 2.032 1.392 2.07 2.317.057 1.353.232 1.291.893-.317.78-1.897.861-1.906 1.57-.164.747 1.837-.942 11.272-2.715 15.164-.964 2.116-6.481 5.171-7.499 4.152-1.292-1.291.642-3.475 2.62-2.958 1.133.297 2.061.112 2.061-.41 0-1.783-4.356-.634-5.79 1.526-1.325 1.995-1.232 2.231 1.245 3.173 1.471.559 3.132 1.017 3.69 1.017.6 0 .753 1.19.374 2.913-.527 2.401-.264 3.033 1.496 3.592 2.491.79 2.386.873 3.822-3.005l1.111-3-.224 3.5c-.188 2.935.134 3.551 1.991 3.815 1.671.238 2.372-.315 2.858-2.25.567-2.258 1.161-2.565 4.963-2.565 3.475 0 4.724-.515 6.391-2.635 2.252-2.862 2.754-8.284.937-10.101-.847-.847-.72-1.55.5-2.771 2.358-2.358 2.036-6.768-.678-9.319-1.273-1.196-2.82-2.174-3.438-2.174-.729 0-.918-1.256-.54-3.589.543-3.342.418-3.565-1.813-3.25-1.59.225-2.502 1.095-2.715 2.589-.175 1.238-.746 2.25-1.269 2.25s-.656-1.169-.295-2.607c.433-1.726.186-2.904-.731-3.485-2.242-1.42-2.931-1.074-4.008 2.015m.626 1.063c-.574 2.612-1.015 2.986-2.841 2.404-3.598-1.148-5.162-.967-5.162.596 0 .818.788 1.638 1.75 1.824.962.185 1.75-.084 1.75-.598s1.04-.736 2.311-.493c2.48.474 4.289-1.062 4.844-4.115.591-3.251-1.934-2.887-2.652.382M45.787 153c-.5 3.401.632 3.955 2.178 1.066 1.419-2.653 1.297-4.066-.352-4.066-.776 0-1.58 1.321-1.826 3m-4.318 7.5a741 741 0 0 0-.898 2.897c-.631 2.052 4.554 2.832 6.429.966 1.333-1.326 1.237-1.708-.861-3.428-2.836-2.325-4.045-2.438-4.67-.435m-9.392 5.577c-.711 2.773-1.102 5.232-.869 5.464s1.004-1.845 1.715-4.618 1.102-5.232.869-5.464-1.004 1.845-1.715 4.618M49 162.989c0 1.421-1.058 2.568-3.25 3.52l-3.25 1.413 3.05.039c1.677.021 3.59-.501 4.25-1.161 1.458-1.458 1.571-4.453.2-5.3-.55-.34-1 .33-1 1.489m-10.575 9.454c-.862 3.436.162 4.557 4.165 4.557 4.46 0 5.681-2.553 2.466-5.156-3.203-2.593-5.891-2.35-6.631.599m9.643 1.185c-.086 2.688-1.754 4.076-5.568 4.634-2.481.363-2.287.464 1.128.588 5.061.184 7.197-1.777 5.582-5.124-1.068-2.212-1.075-2.213-1.142-.098m-15.918 8.229c-.953 1.683-1.027 2.666-.259 3.434 1.535 1.535 2.313.346 1.927-2.95l-.332-2.841zm6.517.81C37.629 183.704 37.883 187 39 187c.55 0 1-1.125 1-2.5 0-2.618-.231-2.936-1.333-1.833m41.796 7.651c-5.177 5.344-9.392 14.153-7.62 15.925C74.707 208.107 91 192.652 91 189.02c0-2.029-1.929-4.02-3.893-4.02-.822 0-3.811 2.393-6.644 5.318"/><path fill="#1976D2" fill-opacity=".573" fill-rule="evenodd" d="M176.364 57.823 167.228 73.5l3.472 6.25c1.91 3.438 3.258 6.25 2.996 6.25s-13.584-7.603-29.605-16.897-30.316-17.194-31.764-17.557c-3.617-.908-8.128 1.169-9.874 4.545-.799 1.545-1.467 4.97-1.485 7.609-.029 4.444-.141 4.655-1.504 2.854-2.21-2.923-3.757-.649-4.257 6.256l-.422 5.84-7.643 4.521c-4.203 2.486-18.779 10.984-32.392 18.884S30 117.009 30 117.731s1.096 1.811 2.435 2.421c2.104.959 2.75.761 4.75-1.455 1.99-2.204 10.855-7.532 53.074-31.896 3.718-2.145 7.543-5.097 8.5-6.559 1.68-2.565 1.758-1.615 2.241 27.217l.5 29.874 6.5 3.997c6.208 3.817 12.142 5.789 14.776 4.911.918-.306 1.253-6.699 1.341-25.574.14-30.219.742-38.026 2.962-38.448.868-.165 18.418 9.464 39 21.397 48.581 28.167 49.421 28.683 49.421 30.348 0 .803-13.205 9.091-30.5 19.142-16.775 9.75-31.512 18.46-32.75 19.357-2.042 1.48-2.25 2.451-2.25 10.525 0 5.188.442 9.167 1.06 9.549.584.361 2.466.073 4.184-.638 2.395-.992 3.217-1.015 3.523-.097.22.659 1.225 1.198 2.234 1.198s15.483-7.92 32.166-17.6 35.421-20.554 41.64-24.165c11.471-6.66 15.193-9.952 15.193-13.436 0-5.615-5.249-10.311-23.25-20.802-9.113-5.311-15.75-9.804-15.75-10.661 0-1.165 1.228-1.429 5.75-1.236 3.162.135 6.031.666 6.375 1.18s1.561.637 2.704.274C228.45 105.722 243 80.929 243 77.294c0-2.873-13.613-27.208-15.66-27.994-.715-.274-2.245-2.029-3.401-3.899-1.93-3.122-2.506-3.401-7.021-3.401-2.705 0-4.918.349-4.918.775s3.88 7.507 8.623 15.735l8.624 14.961-2.153 4.015c-1.184 2.208-3.029 5.139-4.101 6.514-1.682 2.158-1.952 2.245-1.971.633-.016-1.362-.556-1.727-1.996-1.35-1.854.485-1.887.348-.54-2.257.789-1.525 1.152-3.054.807-3.399s-2.779-.627-5.41-.627c-3.471 0-5.085.48-5.881 1.75-.942 1.502-1.009 1.425-.471-.536.467-1.702-1.072-5.212-6.025-13.741-3.659-6.301-7.207-11.797-7.884-12.214-.678-.418-2.533-2.559-4.122-4.759s-3.139-4.305-3.445-4.677c-.305-.373-4.666 6.377-9.691 15M194 42.521c0 .287 3.456 6.561 7.68 13.943 7.587 13.257 7.731 13.429 11.75 14.052 2.239.346 4.86.853 5.825 1.126.971.274 1.997-.134 2.296-.914.709-1.849-8.325-17.434-13.776-23.763-4.009-4.655-4.571-4.964-9.025-4.965-2.613 0-4.75.235-4.75.521M126.411 128c0 9.625.15 13.563.334 8.75.183-4.812.183-12.688 0-17.5-.184-4.812-.334-.875-.334 8.75m18.373 28.083-.284 39.083-3.286 2.935c-2.59 2.314-2.96 3.059-1.747 3.525 2.588.993 6.418-.521 8.202-3.243 1.513-2.309 1.701-6.616 1.762-40.33.056-30.599-.191-38.058-1.303-39.399-.755-.91-1.753-1.654-2.217-1.654s-.971 17.587-1.127 39.083M34.5 136.869c-4.04 1.06-10.174 4.033-11.422 5.537-.557.671 1.743-.145 5.111-1.815 18.151-8.996 40.58 2.536 43.734 22.485l.766 4.848-7.836 8.788c-4.311 4.833-7.841 9.113-7.845 9.509s1.454 1.101 3.242 1.564 3.222 1.262 3.188 1.775c-.116 1.741-8.502 7.38-12.73 8.559-11.502 3.208-23.587.066-31.807-8.27-3.365-3.413-3.815-3.669-2.093-1.192 4.775 6.866 15.508 11.807 28.172 12.971 7.413.681 13.123-.552 18.119-3.91 3.213-2.16 5.249-6.718 3.002-6.718-.571 0-.806-.606-.522-1.346.331-.862-.821-1.855-3.202-2.761l-3.719-1.416 10.128-11.287c9.485-10.572 10.062-11.459 9.105-13.978C74.768 152 68.818 146.169 58 140.722c-7.926-3.99-17.186-5.509-23.5-3.853m-16.095 9.381L16.5 148.5l2.25-1.905c2.114-1.79 2.705-2.595 1.905-2.595-.19 0-1.202 1.012-2.25 2.25m-3.127 4c-1.499 1.938-2.442 3.75-1.952 3.75.244 0 1.181-1.125 2.082-2.5 1.686-2.573 1.592-3.476-.13-1.25M40 151c0 1.1.173 2 .383 2s.619-.9.907-2c.287-1.1.115-2-.384-2-.498 0-.906.9-.906 2m-8 3.059c0 .582.45.781 1 .441s1-.816 1-1.059-.45-.441-1-.441-1 .477-1 1.059M33.5 166c-.956 3.902-1.514 7.32-1.239 7.595s1.283-2.693 2.239-6.595 1.514-7.32 1.239-7.595-1.283 2.693-2.239 6.595m-23.421-3.417c.048 1.165.285 1.402.604.605.289-.722.253-1.585-.079-1.917s-.568.258-.525 1.312m68 5.734c-.594 1.55-1.557 3.8-2.14 5-.901 1.856-.699 1.789 1.346-.443 1.855-2.025 2.802-2.405 4.136-1.659.951.533 1.995.702 2.321.377.325-.326.081-.592-.543-.592s-1.788-1.238-2.587-2.75l-1.452-2.75zM10.158 174c0 1.375.227 1.938.504 1.25.278-.687.278-1.812 0-2.5-.277-.687-.504-.125-.504 1.25m16.509 1.667c-.956.955-.822 2.333.226 2.333.491 0 1.152-.675 1.469-1.5.585-1.524-.481-2.048-1.695-.833m49.876 3.264c-.317.512-.118 1.213.441 1.559s1.016-.074 1.016-.931c0-1.757-.6-2.015-1.457-.628M12 180.642c0 .537.7 1.849 1.555 2.917 1.467 1.83 1.487 1.798.365-.559-1.458-3.061-1.92-3.628-1.92-2.358m20.079 2.941c.048 1.165.285 1.402.604.605.289-.722.253-1.585-.079-1.917s-.568.258-.525 1.312m49.039 6.795c-2.456 2.534-3.192 4.096-2.946 6.25l.328 2.872 4.75-4.377c2.612-2.408 4.75-4.947 4.75-5.643 0-.995-2.028-2.48-3.386-2.48-.122 0-1.695 1.52-3.496 3.378"/></svg>