<?xml version="1.0" encoding="UTF-8"?>
<!-- Generated by Pixelmator Pro 3.3.6 -->
<svg width="1024" height="1024" viewBox="0 0 1024 1024" xmlns="http://www.w3.org/2000/svg">
    <g id="Group">
        <path id="Ellipse" fill="#00960f" fill-rule="evenodd" stroke="none" d="M 511.5 1002 C 236.739441 1002 14 782.618408 14 512 C 14 241.38147 236.739441 22 511.5 22 C 786.260437 22 1009 241.38147 1009 512 C 1009 782.618408 786.260437 1002 511.5 1002 Z M 308.080078 872.992188 C 308.545166 872.984619 308.975281 872.742737 309.220703 872.347656 L 516.998047 512.992188 C 517.200928 512.625732 517.200928 512.180908 516.998047 511.814453 L 306.939453 152.648438 C 306.655182 152.217712 306.163574 151.970947 305.648438 152.001953 C 305.183319 152.00946 304.753265 152.253296 304.507813 152.648438 L 96.845703 511.851563 C 96.581779 512.255615 96.581779 512.777588 96.845703 513.181641 L 306.902344 872.347656 C 307.164795 872.743652 307.605072 872.983704 308.080078 872.992188 Z M 402.736328 871.017578 L 513.996094 871.017578 C 514.480408 871.00769 514.925232 870.747803 515.173828 870.332031 L 693.769531 561.212891 C 693.987854 560.792847 693.972351 560.289673 693.730469 559.882813 C 693.485046 559.487671 693.054871 559.243835 692.589844 559.236328 L 581.292969 559.236328 C 580.825928 559.236572 580.392578 559.4823 580.152344 559.882813 L 401.556641 869.001953 C 401.331726 869.42157 401.341675 869.928955 401.582031 870.339844 C 401.822388 870.750854 402.260345 871.007935 402.736328 871.017578 Z M 607.472656 871.017578 L 718.429688 871.017578 C 718.918091 871.023193 719.370178 870.759094 719.607422 870.332031 L 925.828125 512.498047 C 926.058105 512.084595 926.058105 511.581421 925.828125 511.167969 L 719.607422 153.294922 C 719.349731 152.893738 718.906433 152.650085 718.429688 152.648438 L 607.472656 152.648438 C 607.005615 152.648621 606.574158 152.894348 606.333984 153.294922 C 606.070068 153.698975 606.070068 154.220947 606.333984 154.625 L 812.173828 511.814453 L 606.333984 869.001953 C 606.070068 869.405945 606.070068 869.92804 606.333984 870.332031 C 606.558472 870.753052 606.995544 871.017578 607.472656 871.017578 Z M 584.179688 469.558594 L 695.478516 469.558594 C 695.953369 469.550537 696.38855 469.290161 696.619141 468.875 C 696.849182 468.461487 696.849182 467.958435 696.619141 467.544922 L 515.173828 153.294922 C 514.911316 152.898926 514.47113 152.65686 513.996094 152.648438 L 402.736328 152.648438 C 402.261322 152.65686 401.819122 152.898926 401.556641 153.294922 C 401.32666 153.708374 401.32666 154.211487 401.556641 154.625 L 583.039063 468.875 C 583.263672 469.296021 583.702576 469.558594 584.179688 469.558594 Z"/>
        <path id="path1" fill="none" stroke="#00960f" stroke-width="10" d="M 391.931183 467.274048 L 313.977448 467.274048 L 313.977448 458.690735 C 313.977448 449.552368 313.077057 443.574036 311.276093 440.755615 C 309.475189 437.937256 305.616119 436.528076 299.698792 436.528076 C 294.939209 436.528076 291.369629 437.745117 288.989838 440.179199 C 286.610016 442.613281 285.420166 446.264282 285.420166 451.132385 C 285.420166 459.245972 287.864227 464.925354 292.752472 468.170837 C 297.512024 471.41626 311.533264 477.736206 334.816559 487.130798 C 354.626648 495.073547 368.133392 501.15863 375.337097 505.38623 C 382.540771 509.613831 388.618774 515.592163 393.571259 523.321411 C 398.523834 531.050659 401 540.679932 401 552.209778 C 401 570.657471 394.311005 585.133545 380.932739 595.638428 C 367.554474 606.143311 347.487427 612.634094 320.730896 615.110901 L 320.730896 634.583313 L 284.841309 634.583313 L 284.841309 614.470337 C 264.002075 613.103882 245.800201 607.787354 230.235123 598.520874 C 214.670044 589.254333 206.887573 573.091553 206.887573 550.031982 L 206.887573 539.911377 L 284.841309 539.911377 L 284.841309 552.594116 C 284.841309 566.515259 285.645294 575.162476 287.253235 578.536011 C 288.861206 581.909546 292.752411 583.596313 298.927002 583.596313 C 304.201111 583.596313 308.124481 582.421936 310.697235 580.073303 C 313.269958 577.724609 314.556305 574.244385 314.556305 569.632507 C 314.556305 558.017334 313.33429 549.71167 310.890167 544.715454 C 308.446106 539.719238 300.084778 534.274658 285.806091 528.381653 C 262.008179 518.474609 245.832321 511.193848 237.278 506.539185 C 228.723602 501.884583 221.327057 495.329773 215.088165 486.874573 C 208.849274 478.419434 205.729858 468.854065 205.729858 458.178406 C 205.729858 442.71991 212.322418 430.592407 225.507751 421.795654 C 238.693024 412.99884 258.470703 407.575623 284.841309 405.525879 L 284.841309 389 L 320.730896 389 L 320.730896 405.525879 C 344.78598 407.575623 362.794922 412.934814 374.75824 421.603455 C 386.721466 430.272156 392.702972 442.250183 392.702972 457.537781 C 392.702972 459.672913 392.44574 462.918396 391.931183 467.274048 Z"/>
    </g>
</svg>
