<?xml version="1.0" encoding="UTF-8"?>
<!-- Generated by Pixelmator Pro 3.2.3 -->
<svg width="255" height="255" viewBox="0 0 255 255" xmlns="http://www.w3.org/2000/svg" xmlns:xlink="http://www.w3.org/1999/xlink">
    <g id="Group">
        <path id="Path" fill="#f5f4f6" stroke="none" d="M 174.272629 140.263947 C 174.998993 140.263947 175.452621 141.051453 175.08873 141.680756 L 128.338394 222.528946 C 128.169815 222.82048 127.858795 223 127.522278 223 L 98.944382 223 C 98.218018 223 97.764389 222.212479 98.128273 221.583191 L 144.878616 140.734985 C 145.047195 140.443451 145.358215 140.263947 145.694733 140.263947 L 174.272629 140.263947 Z M 146.477722 117.090134 C 146.141205 117.090134 145.830185 116.910614 145.661606 116.61908 L 98.128273 34.416809 C 97.764389 33.787521 98.218018 33 98.944382 33 L 127.522278 33 C 127.858795 33 128.169815 33.17952 128.338394 33.471054 L 175.871735 115.673325 C 176.235611 116.302612 175.781982 117.090134 175.055618 117.090134 L 146.477722 117.090134 Z"/>
        <path id="path1" fill="#f5f4f6" stroke="none" d="M 152.128403 34.416351 C 151.763855 33.787064 152.218933 33 152.947342 33 L 181.565948 33 C 181.903717 33 182.215851 33.179718 182.384888 33.471512 L 236.873001 127.52758 C 237.042328 127.819862 237.042328 128.180145 236.873001 128.472412 L 182.384888 222.528488 C 182.215851 222.820282 181.903717 223 181.565948 223 L 152.947342 223 C 152.218933 223 151.763855 222.212936 152.128403 221.583649 L 206.34285 128 L 152.128403 34.416351 Z M 128.870209 127.524086 C 129.042435 127.81675 129.043304 128.178558 128.872482 128.472046 L 74.125221 222.528107 C 73.759995 223.155579 72.847839 223.15773 72.479607 222.531982 L 17.129784 128.475922 C 16.957554 128.183258 16.956688 127.821442 17.127512 127.527962 L 71.874771 33.471893 C 72.240005 32.844421 73.152153 32.84227 73.520386 33.468018 L 128.870209 127.524086 Z"/>
    </g>
</svg>
