<?xml version="1.0" encoding="UTF-8"?>
<!-- Generated by Pixelmator Pro 3.2.3 -->
<svg width="1600" height="1600" viewBox="0 0 1600 1600" xmlns="http://www.w3.org/2000/svg" xmlns:xlink="http://www.w3.org/1999/xlink">
    <path id="Rectangle" fill="#ba0000" fill-rule="evenodd" stroke="none" d="M 1600 0 L 1600 1600 L 0 1600 L 0 0 Z"/>
    <path id="Shape" fill="#ffffff" fill-rule="evenodd" stroke="none" d="M 723.398499 796 C 868.275391 796 867.430176 794.992432 868 796 C 869.431763 798.531677 787.540588 1408.512451 787.009155 1409.75 C 786.042908 1412 641.744385 1412 642.325134 1408.25 Z M 1219.690063 947.175415 C 1240.213379 924.719543 1250.384644 912.927979 1255.533447 906.484253 C 1260.682373 900.040527 1268.687622 889.307983 1273.322876 882.634216 C 1277.95813 875.960388 1285.668701 863.974976 1290.457397 856 C 1295.246094 848.025024 1302.949707 833.849976 1307.576416 824.5 C 1312.203125 815.150024 1318.501831 801.424988 1321.573364 794 C 1324.644897 786.575012 1329.396851 773.974976 1332.133179 766 C 1334.869507 758.025024 1338.897217 745.040649 1341.08374 737.145935 C 1343.270264 729.25116 1346.357788 716.651184 1347.944824 709.145935 C 1349.53186 701.640686 1351.755615 689.650024 1352.886597 682.5 C 1354.017456 675.349976 1355.40564 663.697144 1355.971313 656.604797 C 1356.537109 649.51239 1356.999268 631.062439 1356.998291 615.604797 C 1356.997437 600.147156 1356.524414 580.075012 1355.947144 571 C 1355.369873 561.925049 1354.020386 548.425049 1352.948242 541 C 1351.876221 533.574951 1349.420288 520.525024 1347.490845 512 C 1345.561279 503.474976 1342.427979 491.099976 1340.527954 484.5 C 1338.627808 477.900024 1335.098022 466.650024 1332.683838 459.5 C 1330.269653 452.349976 1325.943481 440.650024 1323.069946 433.5 C 1320.196533 426.349976 1314.750366 414.068115 1310.967529 406.206787 C 1307.184692 398.345581 1300.703491 385.914551 1296.564697 378.582397 C 1292.426025 371.250244 1285.825073 360.357178 1281.896118 354.37561 C 1277.967163 348.394043 1271.248291 338.550049 1266.965332 332.5 C 1262.682373 326.449951 1255.200562 316.739502 1250.339111 310.921143 C 1245.477539 305.102783 1237.001587 295.319824 1231.503418 289.181274 C 1226.005249 283.042725 1221.392212 277.676758 1221.252319 277.256836 C 1221.112305 276.836792 1239.684937 257.819702 1262.524902 234.996582 L 1304.052002 193.5 L 1311.279785 201 C 1315.255127 205.125 1321.205933 211.433228 1324.503784 215.018188 C 1327.801758 218.603271 1333.892578 225.578247 1338.03894 230.518188 C 1342.185425 235.458252 1348.739014 243.550049 1352.602661 248.5 C 1356.466187 253.449951 1363.265503 262.675049 1367.71228 269 C 1372.159058 275.324951 1379.155151 285.675049 1383.259033 292 C 1387.363037 298.324951 1394.407104 309.800049 1398.912598 317.5 C 1403.417969 325.199951 1410.704346 338.606445 1415.104248 347.291992 C 1419.504272 355.977661 1425.604004 368.802612 1428.659302 375.791992 C 1431.7146 382.781372 1436.135864 393.675049 1438.484131 400 C 1440.83252 406.324951 1444.598389 417.125 1446.852661 424 C 1449.107056 430.875 1452.996216 443.925049 1455.495239 453 C 1457.994385 462.074951 1461.638428 476.925049 1463.59314 486 C 1465.547852 495.074951 1467.987061 507.224976 1469.013672 513 C 1470.040283 518.775024 1471.809814 529.574951 1472.945923 537 C 1474.082031 544.425049 1475.526855 560.400024 1476.156494 572.5 C 1476.861206 586.040161 1477.051636 606.228394 1476.651733 625 C 1476.294312 641.775024 1475.531006 661.125 1474.955444 668 C 1474.379883 674.875 1473.036865 686.436951 1471.970947 693.693176 C 1470.904907 700.949463 1468.679932 713.779663 1467.026489 722.204773 C 1465.372925 730.629883 1462.425903 744.042908 1460.477295 752.011536 C 1458.528809 759.980225 1454.86145 773.474976 1452.327759 782 C 1449.793945 790.525024 1445.807495 802.900024 1443.468994 809.5 C 1441.130493 816.099976 1437.37439 826.144714 1435.122314 831.821594 C 1432.870117 837.498474 1428.709473 847.398499 1425.876465 853.821594 C 1423.043335 860.24469 1418.029663 870.900024 1414.734863 877.5 C 1411.440063 884.099976 1405.567139 895.125 1401.68396 902 C 1397.800781 908.875 1391.529663 919.427856 1387.748169 925.450745 C 1383.966553 931.473694 1377.453491 941.373657 1373.274536 947.450745 C 1369.095581 953.527832 1362.064697 963.224976 1357.650269 969 C 1353.23584 974.775024 1345.321167 984.656006 1340.062012 990.957764 C 1334.802979 997.259521 1324.875 1008.697937 1318 1016.376404 C 1311.125 1024.054932 1304.959717 1030.516602 1304.299316 1030.735596 C 1303.639038 1030.95459 1295.764038 1023.669617 1286.799316 1014.546814 C 1277.834717 1005.42395 1259.067749 986.533325 1245.094971 972.567627 Z M 369.388153 947.197388 C 305.779358 1010.594421 286.644775 1029 285.828949 1029 C 285.013092 1029 278.509918 1023.037476 271.377411 1015.75 C 264.244904 1008.462524 254.716644 998.081177 250.203491 992.68042 C 245.690338 987.279724 237.287079 976.599243 231.529572 968.946167 C 225.772079 961.29303 216.835892 948.611816 211.671387 940.765686 C 206.506882 932.919556 198.46196 919.972168 193.793777 911.993652 C 189.125595 904.015137 181.732468 890.515137 177.364609 881.993652 C 172.996765 873.472168 166.825745 860.718811 163.651245 853.652954 C 160.476761 846.587097 155.665192 835.265747 152.958862 828.494385 C 150.252548 821.722961 145.753967 809.50415 142.962006 801.34137 C 140.170044 793.17865 135.90683 779.525024 133.488174 771 C 131.069534 762.474976 127.698074 749.268066 125.996056 741.651306 C 124.294037 734.034546 122.042351 723.009521 120.992302 717.151306 C 119.942261 711.293091 118.152794 699.525024 117.015709 691 C 115.878616 682.474976 114.397415 667.400024 113.724136 657.5 C 113.050865 647.599976 112.5 626.450012 112.5 610.5 C 112.5 594.549988 113.054214 573.849976 113.731583 564.5 C 114.408951 555.150024 115.874519 540.525024 116.988403 532 C 118.102287 523.474976 120.388733 509.525024 122.069389 501 C 123.750053 492.474976 126.653748 479.425049 128.522049 472 C 130.39035 464.574951 133.7173 452.425049 135.915268 445 C 138.113251 437.574951 141.926575 425.618286 144.389343 418.429565 C 146.852097 411.240967 151.086304 399.765869 153.798691 392.929565 C 156.511063 386.093384 161.096008 375.324951 163.987457 369 C 166.878906 362.675049 171.947128 352.099976 175.250168 345.5 C 178.553223 338.900024 184.422348 327.875 188.292664 321 C 192.162994 314.125 198.73082 303.099976 202.887848 296.5 C 207.044861 289.900024 213.347717 280.224976 216.89418 275 C 220.440659 269.775024 226.717133 261 230.841934 255.5 C 234.966721 250 242.131912 240.879761 246.764603 235.232788 C 251.397278 229.585815 261.719452 217.977173 269.702728 209.435791 C 277.686035 200.894409 284.627838 194.042603 285.128967 194.209717 C 285.630096 194.376709 304.50296 212.680664 327.068665 234.88501 C 349.634369 257.089355 367.96286 275.885986 367.798615 276.655151 C 367.634369 277.424316 361.048615 285.422729 353.163574 294.429321 C 345.278534 303.435791 335.019653 315.686279 330.366058 321.652466 C 325.712463 327.61853 317.674438 338.800049 312.503815 346.5 C 307.333191 354.199951 300.095459 365.675049 296.420013 372 C 292.744537 378.324951 286.746124 389.349976 283.090179 396.5 C 279.434235 403.650024 274.025421 415.125 271.070587 422 C 268.115784 428.875 263.505249 440.300049 260.824982 447.388916 C 258.144745 454.477783 253.722992 467.667603 250.998901 476.699829 C 248.274811 485.731934 244.471497 500.181885 242.547089 508.810913 C 240.622681 517.439941 238.121292 530.035278 236.988449 536.800537 C 235.855606 543.565796 234.304749 555.265747 233.542099 562.800537 C 232.779434 570.335205 231.870346 583.474976 231.521912 592 C 231.173462 600.525024 231.358231 618.075012 231.93248 631 C 232.506744 643.924988 233.467758 659.623962 234.068069 665.886536 C 234.668381 672.149109 235.98259 682.049133 236.988525 687.886536 C 237.994461 693.723938 240.225372 704.780334 241.946091 712.456299 C 243.666809 720.132324 246.60759 731.832275 248.481155 738.456299 C 250.354721 745.080322 253.874451 756.349976 256.302795 763.5 C 258.73111 770.650024 263.048523 782.349976 265.897034 789.5 C 268.745544 796.650024 274.678741 809.924988 279.081909 819 C 283.485077 828.075012 290.482391 841.484131 294.63147 848.798035 C 298.780548 856.112 305.794067 867.573059 310.21701 874.267151 C 314.639984 880.961243 321.646057 890.952087 325.786072 896.469116 C 329.926086 901.986084 336.696686 910.549988 340.831818 915.5 C 344.96698 920.450012 353.083801 929.606934 358.869202 935.848694 Z M 426.848694 333.5 L 509.002716 415.447021 L 502.625092 421.973511 C 499.117401 425.56311 493.065765 432.43811 489.177002 437.251343 C 485.288208 442.064575 479.203522 450.389526 475.655457 455.751343 C 472.107391 461.113159 466.846161 469.775024 463.963837 475 C 461.081512 480.224976 457.179596 487.875 455.292908 492 C 453.406219 496.125 450.351563 503.137939 448.504761 507.584229 C 446.65799 512.030518 443.502777 520.580444 441.493195 526.584229 C 439.483612 532.587891 436.558441 542.465332 434.992798 548.534058 C 433.427155 554.602905 431.422882 564.439453 430.538818 570.393188 C 429.654785 576.346924 428.657104 589.831604 428.321777 600.35907 C 427.965912 611.531189 428.199585 626.785645 428.883057 637 C 429.681732 648.93573 430.985779 658.726135 432.984406 667.791443 C 434.596069 675.101746 437.551941 686.351746 439.552979 692.791443 C 441.554047 699.23114 445.144012 709.287476 447.530701 715.138794 C 449.917389 720.990112 454.184143 730.388733 457.01236 736.024597 C 459.840576 741.660522 465.089935 751.020508 468.677582 756.824646 C 472.265228 762.628845 477.70575 770.780212 480.767639 774.938843 C 483.829529 779.097473 489.971893 786.946716 494.417358 792.381592 C 498.862793 797.816528 503.340698 803.568237 504.368225 805.163208 C 506.23642 808.063232 506.23642 808.063232 466.41861 848.031616 C 444.518799 870.014221 426.086243 888 425.457367 888 C 424.828491 888 419.676147 882.828857 414.007721 876.508606 C 408.339294 870.188354 400.105499 860.400818 395.710388 854.758606 C 391.315308 849.116394 384.55896 839.792969 380.69632 834.039917 C 376.833679 828.286804 371.249939 819.601929 368.287994 814.740051 C 365.32605 809.878174 359.8078 799.960205 356.025208 792.700134 C 352.242615 785.440063 346.397217 773.040894 343.0354 765.146362 C 339.673615 757.251892 334.910522 744.768982 332.450745 737.406555 C 329.990997 730.044128 326.174561 717.092957 323.969818 708.62616 C 321.765076 700.159363 318.635834 685.369446 317.015961 675.759644 C 314.958252 663.552734 313.729248 651.53894 312.937653 635.893677 C 312.312164 623.530945 312.091736 605.213196 312.445618 595 C 312.798157 584.825012 313.755951 570.914185 314.574097 564.087036 C 315.392212 557.259888 317.125214 546.234863 318.425232 539.587036 C 319.72522 532.939209 322.207825 521.875 323.942139 515 C 325.676453 508.125 329.30481 495.860962 332.005127 487.746582 C 334.705475 479.63208 339.227814 467.482178 342.054779 460.746582 C 344.881714 454.010986 350.3573 442.205322 354.222687 434.511841 C 358.088104 426.818359 364.847412 414.535156 369.243408 407.21582 C 373.639374 399.896606 381.06723 388.641235 385.749725 382.203979 C 390.43222 375.766846 398.472351 365.550049 403.616699 359.5 C 408.761017 353.449951 416.092712 345.125 419.909363 341 Z M 1082.76001 807.151245 C 1099.404663 787.271545 1108.640991 774.87616 1114.02356 766.780396 C 1119.40625 758.684631 1126.640381 746.534607 1130.099365 739.780396 C 1133.55835 733.026184 1138.074341 723.617188 1140.134888 718.871582 C 1142.195435 714.125916 1145.739014 704.675964 1148.009644 697.871582 C 1150.280273 691.0672 1153.227539 681.01355 1154.559082 675.530029 C 1155.890625 670.04657 1157.767944 659.246582 1158.730957 651.530029 C 1159.998535 641.372253 1160.484253 630.186096 1160.490845 611 C 1160.495972 596.187683 1159.946533 579.648499 1159.244995 573.5 C 1158.55481 567.449951 1156.622681 557.099976 1154.951538 550.5 C 1153.280273 543.900024 1149.863647 532.425049 1147.359131 525 C 1144.854492 517.574951 1140.543579 506.41272 1137.779297 500.194946 C 1135.015137 493.977295 1130.342529 484.392456 1127.395996 478.895508 C 1124.449341 473.39856 1119.217407 464.540405 1115.769287 459.210938 C 1112.321167 453.881348 1106.836914 446.141113 1103.582031 442.010376 C 1100.327148 437.879639 1094.150513 430.627808 1089.856323 425.895142 C 1085.562134 421.162476 1081.803467 416.651611 1081.503906 415.87085 C 1081.150269 414.949341 1094.493042 401.127563 1119.533691 376.475708 C 1140.749756 355.588989 1159.255493 337.599976 1160.657593 336.5 C 1163.206787 334.5 1163.206787 334.5 1170.180786 342 C 1174.016602 346.125 1181.775879 355.000122 1187.423828 361.722412 C 1193.071655 368.444702 1201.249268 379.005371 1205.596313 385.190796 C 1209.943359 391.376099 1217.009399 402.301025 1221.298584 409.468384 C 1225.587769 416.635742 1232.289917 429.025024 1236.192383 437 C 1240.094727 444.974976 1245.637207 457.349976 1248.508911 464.5 C 1251.380615 471.650024 1255.813477 483.876953 1258.359619 491.671143 C 1260.905762 499.46521 1264.549316 512.196777 1266.456421 519.963501 C 1268.363525 527.730225 1271.05603 540.928223 1272.439697 549.292358 C 1273.823364 557.656616 1275.397949 569 1275.938843 574.5 C 1276.479614 580 1277.222046 591.700012 1277.588501 600.5 C 1277.980957 609.920288 1277.781494 623.079712 1277.103516 632.5 C 1276.470215 641.299988 1275.038574 655.25 1273.921997 663.5 C 1272.80542 671.75 1270.34082 685.748047 1268.445068 694.60675 C 1266.549316 703.465515 1263.19397 716.824951 1260.98877 724.294434 C 1258.783447 731.763916 1254.902344 743.415833 1252.364014 750.187622 C 1249.825684 756.959412 1245.527588 767.450012 1242.812866 773.5 C 1240.098145 779.549988 1235.178589 789.577148 1231.880493 795.782593 C 1228.58252 801.988037 1223.161865 811.438049 1219.834595 816.782593 C 1216.507446 822.127197 1210.835571 830.775024 1207.230469 836 C 1203.625366 841.224976 1196.435547 850.830566 1191.253052 857.345642 C 1186.070435 863.860718 1178.008057 873.423218 1173.336426 878.595642 C 1168.664917 883.768066 1164.325684 888 1163.693848 888 C 1163.06189 888 1148.809814 874.181519 1132.022461 857.292297 C 1115.235107 840.403076 1097.283447 822.212158 1092.130005 816.86792 Z M 606.153687 706.329102 C 573.097107 739.502075 562.302612 750.005066 560.839111 751.071106 C 558.178284 753.009277 558.178284 753.009277 555.339111 750.003601 C 553.777588 748.350464 549.88031 742.835876 546.678467 737.748962 C 543.476624 732.662048 537.524536 721.75 533.45166 713.5 C 529.378723 705.25 524.031189 692.424988 521.568237 685 C 519.105286 677.575012 515.965637 665.875 514.591248 659 C 513.216797 652.125 511.551178 640.875 510.889801 634 C 510.147888 626.287781 509.907532 614.414124 510.262268 603 C 510.578522 592.825012 511.584412 580 512.49762 574.5 C 513.410828 569 515.231201 560.224976 516.542969 555 C 517.854736 549.775024 520.349548 541.224976 522.087097 536 C 523.824585 530.775024 526.986694 522.624756 529.113953 517.888184 C 531.241211 513.151733 535.045471 505.545532 537.567749 500.985474 C 540.090088 496.425415 544.778137 488.825806 547.985657 484.09729 C 551.193176 479.368774 555.148315 473.93811 556.774841 472.029175 C 559.732117 468.55835 559.732117 468.55835 563.506653 471.437256 C 565.582642 473.020752 576.274719 483.132568 587.266785 493.908081 C 598.25885 504.683716 607.44635 514.00415 607.683472 514.620361 C 607.920532 515.236694 605.600098 519.887451 602.526978 524.955566 C 599.453796 530.02356 595.441956 537.169434 593.611755 540.835083 C 591.781555 544.500854 589.046021 550.624756 587.532715 554.443848 C 586.01947 558.262939 583.724609 565.655273 582.433044 570.871216 C 581.141479 576.087158 579.548157 585.712585 578.892395 592.260986 C 578.146118 599.712585 577.949036 609.841614 578.36554 619.333618 C 578.731567 627.67511 579.748352 638.775024 580.624939 644 C 581.501587 649.224976 583.664307 657.549988 585.430908 662.5 C 587.197571 667.450012 592.582886 679.336548 597.398315 688.914551 Z M 980.627686 514.732544 C 1022.198547 473.576538 1027.466431 468.888672 1029.063354 469.306274 C 1030.173462 469.596558 1032.075806 471.058716 1033.290894 472.55542 C 1034.505859 474.052246 1038.497559 479.746216 1042.161255 485.208862 C 1045.824951 490.671387 1051.564331 500.621582 1054.915405 507.320435 C 1058.266479 514.019165 1062.862793 524.449951 1065.129517 530.5 C 1067.39624 536.550049 1070.561157 546.675049 1072.16272 553 C 1073.764404 559.324951 1075.719238 568.550049 1076.506836 573.5 C 1077.294556 578.450012 1078.411621 589.299622 1078.98938 597.610291 C 1079.732422 608.299133 1079.723389 616.931152 1078.958618 627.110291 C 1078.363892 635.024597 1076.994507 646.674988 1075.915405 653 C 1074.836304 659.325012 1072.642578 669.224976 1071.040405 675 C 1069.438354 680.775024 1066.572388 689.574097 1064.671509 694.553528 C 1062.77063 699.532959 1058.875122 708.307983 1056.014893 714.053528 C 1053.154541 719.799072 1048.96167 727.424988 1046.697388 731 C 1044.433105 734.575012 1040.160034 740.762512 1037.201782 744.75 C 1034.243408 748.737488 1031.132324 752 1030.28833 752 C 1029.444336 752 1018.935364 742.212524 1006.935181 730.25 C 993.665405 717.021912 984.8703 707.481873 984.487915 705.901428 C 984.004272 703.902466 984.921631 701.552917 988.463379 695.719177 C 990.995667 691.548096 994.581726 684.842468 996.432312 680.817688 C 998.282959 676.792969 1001.228882 669.450012 1002.978882 664.5 C 1004.728821 659.549988 1007.245361 650.325012 1008.571106 644 C 1009.896851 637.674988 1011.273438 627.097778 1011.630127 620.495056 C 1012.021423 613.250549 1011.795959 603.808655 1011.061462 596.684509 C 1010.392029 590.191467 1008.760498 580.403076 1007.435852 574.932495 C 1006.111267 569.461914 1003.390076 560.601563 1001.388794 555.24292 C 999.387573 549.884399 996.215698 542.442627 994.34021 538.705688 C 992.464722 534.968872 988.612183 528.046143 985.778931 523.321899 Z M 798.5 742.861816 C 790.25 742.793579 780.990845 742.414429 777.924072 742.019287 C 774.8573 741.624084 769.007324 740.487427 764.924072 739.493347 C 760.84082 738.499268 754.517334 736.478027 750.871887 735.001709 C 747.22644 733.525391 741.151428 730.62561 737.371887 728.557739 C 733.592346 726.489807 726.952515 722.255859 722.616699 719.148926 C 718.280823 716.042053 710.919922 709.674988 706.259033 705 C 701.598145 700.325012 695.089905 692.770081 691.796265 688.211243 C 688.502625 683.652466 683.64093 675.777466 680.992493 670.711243 C 678.344055 665.645081 674.795227 657.335571 673.106201 652.245728 C 671.417175 647.155823 669.518311 639.055847 668.886475 634.245728 C 668.2547 629.435547 667.698303 619.650024 667.650146 612.5 C 667.601929 605.349976 668.119751 595.332825 668.800842 590.239685 C 669.481873 585.146484 671.202515 577.271484 672.624329 572.739624 C 674.046204 568.207886 677.169556 560.537354 679.565125 555.694214 C 681.960632 550.850952 685.925964 543.875977 688.376953 540.194214 C 690.827942 536.512329 695.975952 529.900024 699.817017 525.5 C 703.658081 521.099976 709.786316 515.025024 713.435303 512 C 717.08429 508.974976 723.316589 504.332764 727.284912 501.68396 C 731.253235 499.035156 738.099976 495.120483 742.5 492.984741 C 746.900024 490.848999 754.652039 487.716797 759.726685 486.024292 C 765.135193 484.220337 773.204651 482.477905 779.226685 481.813477 C 785.332642 481.139893 796.396057 480.910889 806.5 481.249146 C 819.040222 481.668823 825.554138 482.361328 831.330139 483.888672 C 835.63678 485.027466 843.018066 487.531982 847.733154 489.454224 C 852.448181 491.376587 859.526794 494.792236 863.463379 497.044556 C 867.400024 499.296875 873.743713 503.453857 877.560425 506.282227 C 881.377197 509.110474 888.335083 515.30127 893.0224 520.039551 C 897.709778 524.777832 904.342957 532.739868 907.762878 537.733154 C 911.182739 542.726318 915.798462 550.566528 918.02002 555.155762 C 920.241516 559.745117 923.352783 567.550049 924.933838 572.5 C 926.514954 577.450012 928.300415 585.549988 928.901489 590.5 C 929.502563 595.450012 929.994385 605.125 929.994385 612 C 929.994385 618.875 929.509949 628.549988 928.917908 633.5 C 928.325806 638.450012 926.543823 646.413208 924.957886 651.195984 C 923.371887 655.978821 920.073914 663.875061 917.628967 668.743225 C 915.184021 673.611389 910.448547 681.683411 907.105652 686.681091 C 903.762756 691.678772 897.813843 699.209045 893.885864 703.4151 C 889.957886 707.621155 882.276611 714.427795 876.816284 718.540955 C 871.356018 722.654114 862.751099 727.994507 857.694275 730.408508 C 852.63739 732.822449 844.674988 736.014648 840 737.502136 C 835.325012 738.989685 827.450012 740.832092 822.5 741.596313 C 817.403259 742.38324 806.994507 742.932068 798.5 742.861816 Z"/>
</svg>
