<?xml version="1.0" encoding="UTF-8"?>
<!-- Generated by Pixelmator Pro 3.2.3 -->
<svg width="1024" height="1024" viewBox="0 0 1024 1024" xmlns="http://www.w3.org/2000/svg" xmlns:xlink="http://www.w3.org/1999/xlink">
    <g id="No-Shadow">
        <path id="V-orange" fill="#ff9000" fill-rule="evenodd" stroke="none" d="M 558.897339 798.947876 C 554.719177 798.913879 550.41864 798.094482 546.5 796.585754 C 543.200012 795.315247 538.474976 793.101563 536 791.666382 C 533.525024 790.231201 529.474976 787.9104 527 786.509033 C 524.525024 785.107666 520.414795 782.732361 517.866211 781.23053 C 515.317688 779.72876 508.117676 775.627991 501.866241 772.117798 C 495.614807 768.607544 489.600006 764.946777 488.5 763.982666 C 487.399994 763.018677 485.375 761.899902 484 761.496643 C 482.625 761.093384 480.825012 760.194092 480 759.49823 C 479.174988 758.802368 476.700012 757.258606 474.5 756.067688 C 472.299988 754.876709 469.149994 753.136841 467.5 752.201172 C 465.850006 751.265503 463.600006 749.764221 462.5 748.864929 C 461.399994 747.965637 459.375 746.899902 458 746.496643 C 456.625 746.093384 454.798401 745.149658 453.940918 744.399536 C 453.083405 743.649292 450.557983 742.015015 448.328827 740.767822 C 446.099701 739.520508 440.342468 736.25 435.535034 733.5 C 430.72757 730.75 425.287445 727.599976 423.445862 726.5 C 421.604309 725.400024 416.229248 722.25 411.501343 719.5 C 406.773438 716.75 400.788971 713.272461 398.202576 711.772156 C 395.61615 710.271851 391.924988 708.265625 390 707.313965 C 388.075012 706.362305 385.600006 704.863159 384.5 703.982666 C 383.399994 703.102173 381.375 701.815735 380 701.124023 C 378.625 700.432312 376.149994 699.086914 374.5 698.134216 C 372.850006 697.181519 368.954529 694.886963 365.843414 693.035278 C 362.7323 691.183472 356.207306 687.303528 351.343414 684.413086 C 346.479553 681.522644 338.282135 676.759766 333.126953 673.828857 C 327.971771 670.897949 322.121765 667.563843 320.126953 666.419678 C 318.132141 665.275391 314.024994 662.85498 311 661.040894 C 307.975006 659.226685 304.375 657.264526 303 656.680359 C 301.625 656.096252 299.600006 654.916687 298.5 654.059143 C 297.399994 653.20166 295.149994 651.723816 293.5 650.775146 C 291.850006 649.826538 288.700012 648.134277 286.5 647.014709 C 284.299988 645.895142 280.475006 643.638489 278 642 C 275.524994 640.361511 271.700012 638.100647 269.5 636.97583 C 267.299988 635.851074 263.428589 633.708862 260.896881 632.215393 C 258.365143 630.721924 252.387878 627.25 247.614044 624.5 C 242.84021 621.75 237.093918 618.507324 234.844498 617.293945 C 232.595078 616.080688 230.022354 614.487854 229.127319 613.754456 C 228.2323 613.020996 225.925003 611.690918 224 610.798706 C 222.074997 609.906494 218.344604 607.785339 215.710236 606.085083 C 213.075851 604.384766 209.475861 602.319641 207.710236 601.495911 C 205.944611 600.67218 202.25 598.586609 199.5 596.861328 C 196.75 595.135986 193.042587 592.877258 191.261307 591.841858 C 189.480026 590.806458 185.946167 588.730957 183.408295 587.229614 C 180.870422 585.728333 176.824203 583.375 174.416718 582 C 172.009216 580.625 166.173141 577.25 161.447662 574.5 C 156.722168 571.75 150.909958 568.375 148.531647 567 C 146.153336 565.625 141.850174 563.150024 138.96907 561.5 C 136.087967 559.849976 132.553787 557.82251 131.115356 556.994568 C 129.67691 556.166565 126.25 554.240479 123.5 552.714417 C 120.75 551.188354 116.25 548.54126 113.5 546.832031 C 110.75 545.122803 106.925003 542.810669 105 541.693909 C 103.074997 540.577148 99.699997 538.66626 97.5 537.447449 C 95.300003 536.228638 91.332199 533.941895 88.682655 532.365723 C 86.033119 530.789551 82.658119 528.887024 81.182655 528.137817 C 79.707199 527.388672 76.699997 525.58905 74.5 524.138794 C 72.300003 522.688477 69.169098 520.151367 67.542442 518.500916 C 65.915779 516.850403 63.541489 514.000122 62.266243 512.166992 C 60.836868 510.112305 59.515884 506.057007 58.821938 501.593384 C 58.026245 496.475281 57.993317 492.029297 58.70961 486.426392 C 59.464531 480.521423 60.480301 477.30658 62.692688 473.820374 C 64.326042 471.246582 67.650879 467.633667 70.081207 465.791687 C 72.511543 463.949646 76.75 461.111206 79.5 459.484009 C 82.25 457.856812 85.224991 456.069763 86.111099 455.512756 C 86.9972 454.95575 90.094971 453.150024 92.995033 451.5 C 95.895096 449.849976 99.700272 447.747742 101.450981 446.828247 C 103.201691 445.908813 106.85392 443.778137 109.567047 442.093384 C 112.280174 440.408569 116.074997 438.2547 118 437.306885 C 119.925003 436.359131 122.399994 434.871033 123.5 434 C 124.600006 433.128967 127.074997 431.638184 129 430.687073 C 130.925003 429.735962 134.300003 427.871521 136.5 426.543762 C 138.699997 425.216064 142.607742 422.917053 145.183884 421.434753 C 147.760025 419.952515 151.901184 417.560852 154.386459 416.119873 C 156.871735 414.678955 162.773422 411.25 167.501343 408.5 C 172.229263 405.75 177.763107 402.48877 179.798782 401.252808 C 181.834457 400.016907 185.300003 398.080566 187.5 396.949829 C 189.699997 395.819153 193.524994 393.575623 196 391.964233 C 198.475006 390.352844 202.074997 388.257996 204 387.309021 C 205.925003 386.360046 208.399994 384.829041 209.5 383.906738 C 210.600006 382.984497 212.625 381.901428 214 381.5 C 215.375 381.098572 217.399994 380.034363 218.5 379.135071 C 219.600006 378.235779 221.850006 376.723816 223.5 375.775146 C 225.149994 374.826538 228.300003 373.105774 230.5 371.951355 C 232.699997 370.796936 236.467712 368.780396 238.872681 367.470154 C 241.277649 366.159912 243.977646 364.505371 244.872681 363.793335 C 245.7677 363.081299 247.850006 361.699341 249.5 360.72229 C 251.149994 359.745239 254.524994 357.816895 257 356.437073 C 259.475006 355.057312 263.299988 352.838684 265.5 351.506836 C 267.700012 350.174988 271.299988 348.162292 273.5 347.034302 C 275.700012 345.90625 279.75 343.57196 282.5 341.846924 C 285.25 340.121887 289.299988 337.664978 291.5 336.387085 C 293.700012 335.109192 297.075012 333.331238 299 332.435974 C 300.924988 331.540771 303.399994 330.037292 304.5 329.094971 C 305.600006 328.152649 307.625 326.827698 309 326.150635 C 310.375 325.473572 313.571411 323.700134 316.103119 322.209778 C 318.634857 320.719421 324.629791 317.25 329.425201 314.5 C 334.220612 311.75 340.116943 308.375 342.528137 307 C 344.939331 305.625 350.771667 302.25 355.488892 299.5 C 360.206116 296.75 365.906097 293.507263 368.155518 292.293945 C 370.404938 291.080627 372.977661 289.50177 373.872681 288.785339 C 374.7677 288.068909 377.200897 286.58667 379.279755 285.491394 C 381.358643 284.396118 384.733643 282.520447 386.779755 281.323181 C 388.825897 280.125916 392.892273 277.94165 395.816162 276.469238 C 399.236053 274.74707 402.078339 273.972961 403.784393 274.299133 C 405.243042 274.577942 407.480774 276.020203 408.757172 277.504089 C 411.077911 280.202087 411.077911 280.202087 410.78894 312.52948 C 410.511261 343.596008 410.417938 344.966736 408.395782 347.673462 C 407.238464 349.222595 404.313446 351.713379 401.895782 353.208496 C 399.478088 354.703613 395.599274 356.955872 393.276154 358.21344 C 390.953033 359.471069 385.778046 362.44519 381.776154 364.822632 C 377.774261 367.200073 372.024994 370.656677 369 372.503967 C 365.975006 374.351257 361.700012 376.795349 359.5 377.935303 C 357.299988 379.075195 353.25 381.325928 350.5 382.93689 C 347.75 384.547913 344.375 386.432007 343 387.12384 C 341.625 387.815674 339.600006 389.144104 338.5 390.075928 C 337.399994 391.007751 335.375 392.098572 334 392.5 C 332.625 392.901428 330.600006 393.965637 329.5 394.864929 C 328.399994 395.764221 326.149994 397.266235 324.5 398.202759 C 322.850006 399.139221 319.300171 401.164246 316.611481 402.702759 C 313.922791 404.241211 309.872803 406.52356 307.611481 407.774536 C 305.350159 409.025513 301.833038 411.050537 299.795654 412.274536 C 297.75827 413.498535 293.933258 415.806824 291.295654 417.403992 C 288.658051 419.00116 284.983765 421.117554 283.130585 422.107056 C 281.277405 423.096558 279.027405 424.549072 278.130585 425.334778 C 277.233765 426.120544 275.375 427.09491 274 427.5 C 272.625 427.90509 270.825012 428.805908 270 429.50177 C 269.174988 430.197632 266.700012 431.749329 264.5 432.949951 C 262.299988 434.150574 258.700012 436.218506 256.5 437.545349 C 254.299988 438.872192 250.924988 440.735962 249 441.687073 C 247.075012 442.638184 244.600006 444.170959 243.5 445.093262 C 242.399994 446.015503 240.490158 447.076355 239.25592 447.450562 C 238.021683 447.824829 236.446671 448.67926 235.75592 449.349304 C 235.06517 450.019287 232.25 451.88385 229.5 453.492676 C 226.75 455.101501 222.81987 457.336304 220.766357 458.458923 C 218.71286 459.581482 213.636337 462.525024 209.485184 465 C 205.33403 467.474976 199.814163 470.727539 197.218826 472.227844 C 194.623474 473.728149 190.925003 475.734375 189 476.686035 C 187.074997 477.637695 184.600006 479.139404 183.5 480.023132 C 182.399994 480.90686 180.600006 482.050659 179.5 482.564941 C 178.399994 483.079224 175.81076 484.557983 173.74614 485.851074 C 171.681519 487.144165 169.056595 489.516113 167.912994 491.122192 C 165.833725 494.042236 165.833725 494.042236 169.101929 497.095215 C 170.899445 498.774353 173.974365 501.031677 175.935074 502.11145 C 177.895782 503.191223 181.300003 505.163696 183.5 506.49469 C 185.699997 507.825745 189.300003 509.838623 191.5 510.967834 C 193.699997 512.097046 197.524994 514.351685 200 515.978149 C 202.475006 517.604614 206.699829 520.187439 209.388519 521.717651 C 212.077209 523.247925 216.127213 525.52356 218.388519 526.774536 C 220.649841 528.025513 224.300003 530.133789 226.5 531.459595 C 228.699997 532.785461 232.524994 535.053589 235 536.5 C 237.475006 537.946411 241.135742 540.113037 243.134979 541.31488 C 245.134232 542.516724 251.148468 545.974976 256.5 549 C 261.851532 552.025024 267.731323 555.400024 269.566254 556.5 C 271.401154 557.599976 276.636902 560.666382 281.201233 563.314209 C 285.765564 565.962036 291.975006 569.643616 295 571.495544 C 298.024994 573.347473 302.299988 575.80957 304.5 576.966797 C 306.700012 578.124023 310.075012 579.968567 312 581.065674 C 313.924988 582.162842 317.524994 584.392151 320 586.019775 C 322.475006 587.6474 326.415955 589.869263 328.75769 590.957275 C 331.099426 592.045288 333.574432 593.451904 334.25769 594.083008 C 334.940948 594.714111 336.936798 595.966187 338.692902 596.865234 C 340.449005 597.764404 344.499023 600.074951 347.692902 601.999878 C 350.88681 603.924805 354.850006 606.266724 356.5 607.204041 C 358.149994 608.141418 361.299988 609.832764 363.5 610.962524 C 365.700012 612.092285 369.75 614.438416 372.5 616.176086 C 375.25 617.913757 379.299988 620.386963 381.5 621.67218 C 383.700012 622.957336 387.299988 624.92981 389.5 626.055359 C 391.700012 627.180908 395.75 629.49408 398.5 631.195679 C 401.25 632.897217 405.299988 635.31958 407.5 636.578613 C 409.700012 637.837646 413.075012 639.722534 415 640.767273 C 416.924988 641.812012 420.75 644.060303 423.5 645.763611 C 426.25 647.466919 434.125 652.064575 441 655.980774 C 447.875 659.896973 455.75 664.491333 458.5 666.19043 C 461.25 667.889526 465.524994 670.402222 468 671.774048 C 470.475006 673.145935 474.075012 675.124817 476 676.17157 C 477.924988 677.218323 481.524994 679.403198 484 681.026917 C 486.475006 682.650635 490.299988 684.902954 492.5 686.032166 C 494.700012 687.161377 498.299988 689.175415 500.5 690.507935 C 502.700012 691.840332 507.200012 694.408691 510.5 696.215271 C 513.799988 698.021851 517.722046 699.639893 519.215698 699.810791 C 521.360168 700.056213 522.044678 699.635498 522.46991 697.810791 C 522.766113 696.539856 523.11908 641.5 523.254211 575.5 C 523.5 455.5 523.5 455.5 526.5 451.719116 C 528.150024 449.639648 530.474548 447.687866 531.665649 447.381897 C 533.055054 447.024963 536.525513 448.200989 541.347412 450.662781 C 545.481262 452.773254 552.741211 456.75 557.48053 459.5 C 562.21991 462.25 567.763123 465.496399 569.798767 466.714172 C 571.834473 467.931946 575.525024 470.059937 578 471.442932 C 580.474976 472.825928 584.291809 475.220764 586.481812 476.764709 C 588.671875 478.308716 591.146851 480.789185 591.981812 482.276917 C 593.319763 484.660767 593.5 502.011414 593.5 628.419434 C 593.5 771.856934 593.5 771.856934 590.169373 778.61084 C 588.142273 782.721558 584.869202 787.213928 581.806091 790.089722 C 578.653931 793.049133 574.628845 795.596558 571.034058 796.907349 C 567.344971 798.252441 563.009338 798.981384 558.897339 798.947876 Z"/>
        <path id="V-red" fill="#e31337" fill-rule="evenodd" stroke="none" d="M 465.102661 247.052124 C 469.280823 247.086121 473.58136 247.905518 477.5 249.414246 C 480.799988 250.684753 485.525024 252.898499 488 254.333618 C 490.474976 255.768799 494.525024 258.0896 497 259.490967 C 499.474976 260.892334 503.585205 263.267639 506.133789 264.76947 C 508.682312 266.27124 515.882324 270.372009 522.133789 273.882263 C 528.385193 277.392517 534.400024 281.053284 535.5 282.017334 C 536.600037 282.981384 538.625 284.100098 540 284.503357 C 541.375 284.906616 543.174988 285.805908 544 286.50177 C 544.825012 287.197632 547.299988 288.741394 549.5 289.932312 C 551.700012 291.123291 554.850037 292.86322 556.5 293.798828 C 558.150024 294.734497 560.400024 296.235779 561.5 297.135071 C 562.600037 298.034363 564.625 299.100098 566 299.503357 C 567.375 299.906616 569.201599 300.850342 570.059082 301.600525 C 570.916626 302.350708 573.442017 303.984985 575.671204 305.232239 C 577.90033 306.479492 583.657532 309.75 588.464966 312.5 C 593.272461 315.25 598.712585 318.400024 600.554138 319.5 C 602.395691 320.600037 607.770752 323.75 612.498657 326.5 C 617.226563 329.25 623.21106 332.727539 625.797424 334.227844 C 628.38385 335.72821 632.075012 337.734375 634 338.686035 C 635.924988 339.637756 638.400024 341.136841 639.5 342.017334 C 640.600037 342.897888 642.625 344.184265 644 344.875977 C 645.375 345.567688 647.850037 346.913147 649.5 347.865784 C 651.150024 348.818481 655.045471 351.113037 658.156616 352.964783 C 661.2677 354.816528 667.792725 358.696472 672.656616 361.586914 C 677.520447 364.477356 685.717896 369.240234 690.873047 372.171143 C 696.028259 375.102051 701.878235 378.436157 703.873047 379.580383 C 705.867859 380.724609 709.975037 383.14502 713 384.959167 C 716.025024 386.773315 719.625 388.735535 721 389.319641 C 722.375 389.903748 724.400024 391.083313 725.5 391.940857 C 726.600037 392.798401 728.850037 394.276184 730.5 395.224854 C 732.150024 396.173523 735.299988 397.865723 737.5 398.985291 C 739.700012 400.104919 743.525024 402.361511 746 404 C 748.475037 405.638489 752.299988 407.899353 754.5 409.02417 C 756.700012 410.148926 760.571411 412.291138 763.103149 413.784607 C 765.634888 415.278076 771.612122 418.75 776.385986 421.5 C 781.15979 424.25 786.906067 427.492737 789.155518 428.706055 C 791.404907 429.919373 793.977661 431.512146 794.872681 432.245544 C 795.7677 432.979004 798.075012 434.309082 800 435.201294 C 801.924988 436.093506 805.655396 438.214661 808.289795 439.914978 C 810.924133 441.615234 814.52417 443.680359 816.289795 444.504089 C 818.05542 445.32782 821.75 447.413391 824.5 449.138733 C 827.25 450.864014 830.957397 453.122742 832.738708 454.158142 C 834.519958 455.193542 838.053833 457.269043 840.591736 458.770386 C 843.129578 460.271667 847.175781 462.625 849.583313 464 C 851.990784 465.375 857.826843 468.75 862.552368 471.5 C 867.277832 474.25 873.090027 477.625 875.468384 479 C 877.84668 480.375 882.149841 482.850037 885.030945 484.5 C 887.912048 486.150024 891.446228 488.17749 892.884644 489.005432 C 894.32312 489.833435 897.75 491.759521 900.5 493.285583 C 903.25 494.811707 907.75 497.45874 910.5 499.167969 C 913.25 500.877197 917.075012 503.189331 919 504.306091 C 920.924988 505.422852 924.299988 507.333801 926.5 508.552551 C 928.700012 509.771362 932.667786 512.058105 935.317322 513.634277 C 937.966858 515.210449 941.341858 517.112976 942.817322 517.862183 C 944.292786 518.611328 947.299988 520.41095 949.5 521.861206 C 951.700012 523.311523 954.830933 525.848633 956.457581 527.499084 C 958.084229 529.149597 960.458496 531.999878 961.733765 533.833008 C 963.163147 535.887695 964.484131 539.942993 965.17804 544.406616 C 965.973755 549.524719 966.006714 553.970703 965.290405 559.573608 C 964.535461 565.478577 963.519714 568.69342 961.307312 572.179626 C 959.67395 574.753418 956.349121 578.366333 953.918823 580.208313 C 951.488464 582.050354 947.25 584.888794 944.5 586.515991 C 941.75 588.143188 938.775024 589.930237 937.888916 590.487244 C 937.002808 591.04425 933.905029 592.849976 931.004944 594.5 C 928.104919 596.150024 924.299744 598.252258 922.549011 599.171753 C 920.79834 600.091187 917.146057 602.221863 914.432983 603.906616 C 911.719849 605.591431 907.924988 607.7453 906 608.693115 C 904.075012 609.640869 901.600037 611.128967 900.5 612 C 899.400024 612.871033 896.924988 614.361816 895 615.312927 C 893.075012 616.264038 889.700012 618.128479 887.5 619.456238 C 885.299988 620.783936 881.392273 623.082947 878.816101 624.565247 C 876.23999 626.047485 872.098816 628.439148 869.613525 629.880127 C 867.128296 631.321045 861.226563 634.75 856.498657 637.5 C 851.770752 640.25 846.236877 643.51123 844.201233 644.747192 C 842.165527 645.983093 838.700012 647.919434 836.5 649.050171 C 834.299988 650.180847 830.475037 652.424377 828 654.035767 C 825.525024 655.647156 821.924988 657.742004 820 658.690979 C 818.075012 659.639954 815.600037 661.170959 814.5 662.093262 C 813.400024 663.015503 811.375 664.098572 810 664.5 C 808.625 664.901428 806.600037 665.965637 805.5 666.864929 C 804.400024 667.764221 802.150024 669.276184 800.5 670.224854 C 798.850037 671.173462 795.700012 672.894226 793.5 674.048645 C 791.299988 675.203064 787.532288 677.219604 785.127319 678.529846 C 782.722351 679.840088 780.022339 681.494629 779.127319 682.206665 C 778.2323 682.918701 776.150024 684.300659 774.5 685.27771 C 772.850037 686.254761 769.475037 688.183105 767 689.562927 C 764.525024 690.942688 760.700012 693.161316 758.5 694.493164 C 756.299988 695.825012 752.700012 697.837708 750.5 698.965698 C 748.299988 700.09375 744.25 702.42804 741.5 704.153076 C 738.75 705.878113 734.700012 708.335022 732.5 709.612915 C 730.299988 710.890808 726.924988 712.668762 725 713.564026 C 723.075012 714.459229 720.600037 715.962708 719.5 716.905029 C 718.400024 717.847351 716.375 719.172302 715 719.849365 C 713.625 720.526428 710.428589 722.299866 707.896912 723.790222 C 705.365173 725.280579 699.370239 728.75 694.574829 731.5 C 689.779419 734.25 683.883057 737.625 681.471863 739 C 679.060669 740.375 673.228333 743.75 668.511108 746.5 C 663.793884 749.25 658.093933 752.492737 655.844482 753.706055 C 653.595093 754.919373 651.022339 756.49823 650.127319 757.214661 C 649.2323 757.931091 646.799133 759.41333 644.720276 760.508606 C 642.641357 761.603882 639.266357 763.479553 637.220276 764.676819 C 635.174133 765.874084 631.107727 768.05835 628.183838 769.530762 C 624.763977 771.25293 621.921692 772.027039 620.215637 771.700867 C 618.756958 771.422058 616.519226 769.979797 615.242859 768.495911 C 612.922119 765.797913 612.922119 765.797913 613.21106 733.47052 C 613.48877 702.403992 613.582092 701.033264 615.604248 698.326538 C 616.761536 696.777405 619.686584 694.286621 622.104248 692.791504 C 624.521912 691.296387 628.400757 689.044128 630.723877 687.78656 C 633.046997 686.528931 638.221985 683.55481 642.223877 681.177368 C 646.225769 678.799927 651.975037 675.343323 655 673.496033 C 658.025024 671.648743 662.299988 669.204651 664.5 668.064697 C 666.700012 666.924805 670.75 664.674072 673.5 663.06311 C 676.25 661.452087 679.625 659.567993 681 658.87616 C 682.375 658.184326 684.400024 656.855896 685.5 655.924072 C 686.600037 654.992249 688.625 653.901428 690 653.5 C 691.375 653.098572 693.400024 652.034363 694.5 651.135071 C 695.600037 650.235779 697.850037 648.733765 699.5 647.797241 C 701.150024 646.860779 704.699829 644.835754 707.38855 643.297241 C 710.077209 641.758789 714.127197 639.47644 716.38855 638.225464 C 718.649841 636.974487 722.166992 634.949463 724.204346 633.725464 C 726.24176 632.501465 730.066772 630.193176 732.704346 628.596008 C 735.34198 626.99884 739.016235 624.882446 740.869446 623.892944 C 742.722595 622.903442 744.972595 621.450928 745.869446 620.665222 C 746.766235 619.879456 748.625 618.90509 750 618.5 C 751.375 618.09491 753.174988 617.194092 754 616.49823 C 754.825012 615.802368 757.299988 614.250671 759.5 613.050049 C 761.700012 611.849426 765.299988 609.781494 767.5 608.454651 C 769.700012 607.127808 773.075012 605.264038 775 604.312927 C 776.924988 603.361816 779.400024 601.829041 780.5 600.906738 C 781.600037 599.984497 783.509827 598.923645 784.74408 598.549438 C 785.978333 598.175171 787.553345 597.32074 788.24408 596.650696 C 788.934814 595.980713 791.75 594.11615 794.5 592.507324 C 797.25 590.898499 801.180115 588.663696 803.233643 587.541077 C 805.28717 586.418518 810.363647 583.474976 814.514832 581 C 818.665955 578.525024 824.185852 575.272461 826.781189 573.772156 C 829.376526 572.271851 833.075012 570.265625 835 569.313965 C 836.924988 568.362305 839.400024 566.860596 840.5 565.976868 C 841.600037 565.09314 843.400024 563.949341 844.5 563.435059 C 845.600037 562.920776 848.18927 561.442017 850.253845 560.148926 C 852.318481 558.855835 854.94342 556.483887 856.087036 554.877808 C 858.16626 551.957764 858.16626 551.957764 854.898071 548.904785 C 853.100586 547.225647 850.025635 544.968323 848.064941 543.88855 C 846.104248 542.808777 842.700012 540.836304 840.5 539.50531 C 838.299988 538.174255 834.700012 536.161377 832.5 535.032166 C 830.299988 533.902954 826.475037 531.648315 824 530.021851 C 821.525024 528.395386 817.300171 525.812561 814.611511 524.282349 C 811.922791 522.752075 807.872803 520.47644 805.611511 519.225464 C 803.350159 517.974487 799.700012 515.866211 797.5 514.540405 C 795.299988 513.214539 791.475037 510.946411 789 509.5 C 786.525024 508.05365 782.864258 505.886963 780.865051 504.68512 C 778.865784 503.483337 772.851563 500.025024 767.5 497 C 762.148499 493.975037 756.268677 490.600037 754.433777 489.5 C 752.598877 488.400024 747.363098 485.333618 742.798767 482.685791 C 738.234436 480.038025 732.025024 476.356384 729 474.504456 C 725.975037 472.652527 721.700012 470.190491 719.5 469.033203 C 717.299988 467.875977 713.924988 466.031433 712 464.934326 C 710.075012 463.837219 706.475037 461.607849 704 459.980225 C 701.525024 458.3526 697.584045 456.130737 695.24231 455.042725 C 692.900574 453.954712 690.425598 452.548096 689.74231 451.916992 C 689.059082 451.285889 687.063232 450.033875 685.307129 449.134766 C 683.551025 448.235657 679.500977 445.925049 676.307129 444.000122 C 673.11322 442.075195 669.150024 439.733337 667.5 438.795959 C 665.850037 437.858582 662.700012 436.167297 660.5 435.037476 C 658.299988 433.907715 654.25 431.561584 651.5 429.823914 C 648.75 428.086243 644.700012 425.613037 642.5 424.32782 C 640.299988 423.042664 636.700012 421.070251 634.5 419.944641 C 632.299988 418.819092 628.25 416.50592 625.5 414.804382 C 622.75 413.102783 618.700012 410.68042 616.5 409.421387 C 614.299988 408.162354 610.924988 406.277466 609 405.232727 C 607.075012 404.188049 603.25 401.939697 600.5 400.236389 C 597.75 398.533142 589.875 393.935425 583 390.019226 C 576.125 386.103027 568.25 381.508728 565.5 379.80957 C 562.75 378.110474 558.475037 375.597839 556 374.225952 C 553.525024 372.854065 549.924988 370.875183 548 369.82843 C 546.075012 368.781677 542.475037 366.596802 540 364.973083 C 537.525024 363.349426 533.700012 361.097046 531.5 359.967834 C 529.299988 358.838623 525.700012 356.824585 523.5 355.492126 C 521.299988 354.159668 516.799988 351.591309 513.5 349.784729 C 510.200012 347.978149 506.277954 346.360168 504.784302 346.189209 C 502.639832 345.943787 501.955322 346.364502 501.53009 348.189209 C 501.233887 349.460144 500.88092 404.5 500.745789 470.5 C 500.5 590.5 500.5 590.5 497.5 594.280884 C 495.849976 596.360352 493.525452 598.312134 492.334351 598.618103 C 490.944946 598.975037 487.474487 597.799011 482.652588 595.337219 C 478.518738 593.226746 471.258789 589.25 466.51947 586.5 C 461.78009 583.75 456.236877 580.503601 454.201233 579.285828 C 452.165527 578.068054 448.474976 575.940063 446 574.557068 C 443.525024 573.174072 439.708191 570.779236 437.518188 569.235291 C 435.328125 567.691284 432.853149 565.210815 432.018188 563.723083 C 430.680237 561.339233 430.5 543.988586 430.5 417.580627 C 430.5 274.143066 430.5 274.143066 433.830627 267.38916 C 435.857727 263.278442 439.130798 258.786072 442.193909 255.910278 C 445.346069 252.950867 449.371155 250.403442 452.965942 249.092712 C 456.655029 247.747559 460.990662 247.018616 465.102661 247.052124 Z"/>
        <g id="Logos">
            <g id="BTC">
                <path id="BTC-Round" fill="#ff9000" stroke="#000000" stroke-width="2" stroke-linecap="round" stroke-linejoin="round" d="M 327.889374 681.043335 C 327.576813 624.344604 286.634735 576.039246 230.753906 566.438477 C 174.873077 556.837769 120.156143 588.708069 100.9375 642.051147 C 81.718864 695.394287 103.536575 754.838745 152.700195 783.08374 C 201.863815 811.328735 264.20639 800.235168 300.608429 756.76416 L 268.065247 747.725525 Z"/>
                <filter id="filter1" x="0" y="0" width="1024" height="1024" filterUnits="userSpaceOnUse" primitiveUnits="userSpaceOnUse" color-interpolation-filters="sRGB">
                    <feFlood flood-color="#ffffff" flood-opacity="0.814771"/>
                    <feComposite in2="SourceGraphic" operator="out"/>
                    <feGaussianBlur stdDeviation="4.372326"/>
                    <feOffset dx="5.679818" dy="3.279244"/>
                    <feComposite in2="SourceGraphic" operator="atop"/>
                </filter>
                <path id="Lightning-Flash" fill="#fff300" stroke="none" filter="url(#filter1)" d="M 358.386871 653.026123 L 275.392395 745.51355 L 322.076782 758.479126 L 289.224823 830.221741 L 380 738.598633 L 325.534851 723.904297 Z"/>
                <path id="path1" fill="#ffffff" stroke="#fff300" stroke-width="3.279244" stroke-linecap="round" stroke-linejoin="round" d="M 262.527893 665.029663 C 264.859772 649.470032 253.007782 641.10553 236.808441 635.526855 L 242.084381 614.450562 L 229.2556 611.251953 L 224.137817 631.771118 C 220.767258 630.931885 217.307281 630.140869 213.861038 629.356689 L 219.013214 608.720581 L 206.191284 605.528809 L 200.935913 626.598328 C 198.143188 625.958618 195.39856 625.332642 192.736511 624.672241 L 192.736511 624.603516 L 175.037613 620.187378 L 171.598267 633.889771 C 171.598267 633.889771 181.118378 636.070313 180.918915 636.207886 C 186.139847 637.452942 187.054718 640.892273 186.923996 643.643799 L 180.939545 667.657349 C 181.393539 667.768921 181.839432 667.911377 182.274017 668.083862 L 180.898239 667.746765 L 172.506226 701.383667 C 171.866516 702.958862 170.256882 705.332031 166.624924 704.430908 C 166.755646 704.616699 157.297409 702.105957 157.297409 702.105957 L 150.927734 716.791992 L 167.629211 720.919189 C 170.731506 721.696533 173.778778 722.508179 176.771027 723.278564 L 171.460678 744.6026 L 184.303238 747.828735 L 189.558563 726.738586 C 193.05983 727.687866 196.437256 728.561462 199.780319 729.386902 L 194.545624 750.380737 L 207.37442 753.579346 L 212.684769 732.303467 C 234.559082 736.430664 251.01297 734.772949 257.939819 714.98291 C 263.518433 699.051758 257.657806 689.861816 246.149719 683.870483 C 254.527969 681.9375 260.842651 676.420837 262.527893 665.029663 Z M 233.217743 706.136841 C 229.248688 722.067932 202.421753 713.455811 193.727036 711.295898 L 200.770844 683.05188 C 209.472412 685.225586 237.358719 689.52478 233.217743 706.136841 Z M 237.186752 664.802673 C 233.568558 679.296143 211.240234 671.929016 203.996948 670.126831 L 210.387283 644.510498 C 217.623703 646.312744 240.949417 649.683289 237.186752 664.802673 Z"/>
            </g>
            <path id="Hive" fill="#e31337" fill-rule="evenodd" stroke="#000000" stroke-width="2" stroke-linecap="round" stroke-linejoin="round" d="M 744.351563 445.929688 C 743.96344 445.930603 743.575073 445.74115 743.351563 445.361328 L 676.158203 331.179688 C 675.949158 330.824402 675.94696 330.385559 676.154297 330.029297 L 742.617188 215.847656 C 743.060608 215.085938 744.16626 215.084106 744.613281 215.84375 L 811.806641 330.025391 C 812.015747 330.380676 812.017944 330.819519 811.810547 331.175781 L 745.347656 445.357422 C 745.125977 445.738281 744.739685 445.928772 744.351563 445.929688 Z M 775.478516 445.929688 C 774.596741 445.929688 774.046509 444.974915 774.488281 444.210938 L 831.242188 346.0625 C 831.446838 345.708557 831.823853 345.490234 832.232422 345.490234 L 866.925781 345.490234 C 867.807556 345.490234 868.357788 346.44696 867.916016 347.210938 L 811.162109 445.357422 C 810.95752 445.711365 810.580383 445.929688 810.171875 445.929688 L 775.478516 445.929688 Z M 841.037109 445.929688 C 840.152832 445.929688 839.600403 444.974915 840.042969 444.210938 L 905.857422 330.603516 L 840.042969 216.994141 C 839.600403 216.230225 840.152832 215.275391 841.037109 215.275391 L 875.779297 215.275391 C 876.189331 215.275391 876.568176 215.493408 876.773438 215.847656 L 942.919922 330.029297 C 943.125488 330.384155 943.125488 330.820984 942.919922 331.175781 L 876.773438 445.357422 C 876.568176 445.71167 876.189331 445.929688 875.779297 445.929688 L 841.037109 445.929688 Z M 833.181641 317.357422 C 832.773132 317.357422 832.396057 317.140991 832.191406 316.787109 L 774.488281 216.994141 C 774.046509 216.230225 774.596741 215.275391 775.478516 215.275391 L 810.171875 215.275391 C 810.580383 215.275391 810.95752 215.493774 811.162109 215.847656 L 868.865234 315.638672 C 869.306946 316.402588 868.756775 317.357422 867.875 317.357422 L 833.181641 317.357422 Z"/>
        </g>
    </g>
    <style>
        @media (max-width: 100px) {
            #Logos {
                display: none;
            }
        }
    </style>
</svg>
